<svg width="378" height="566" viewBox="0 0 378 566" fill="none" xmlns="http://www.w3.org/2000/svg">
<g clip-path="url(#clip0_1267_68)">
<path d="M46.09 565.44C20.67 565.44 0 544.76 0 519.35V402.95C0 381.8 14.32 363.93 33.78 358.53V274.09C33.78 248.79 54.27 228.18 79.53 228V198.37C79.53 184.81 85.47 172.16 95.49 163.5C95.25 156.15 96.68 148.57 99.75 141.13C100.09 140.3 100.44 139.51 100.77 138.79C99.75 136.53 98.55 133.63 97.55 130.2C93.09 114.87 92.84 92.52 95.17 79.78L100.33 71.26L101.84 70.08C102.57 62.31 104.48 55.37 107.61 49.03C108.08 48.08 108.55 47.2 109.01 46.38L107.9 38.27L109.99 28.8L120.67 12.18L128.41 6.34L143.34 1.84L153.01 2.43C157.01 4.19 165.71 8.01 173.4 16.08L175.62 16.67C178.41 18.55 181.01 20.84 183.35 23.47C184.42 22.59 185.54 21.72 186.72 20.86L194.69 18.17L208.44 17.89L209.45 18.19L221.26 6.23L228.99 2.25L242.98 -0.00999832L251.57 1.34C259.87 5.57 267.39 9.98 274.34 19.91L278.92 21.9L285.22 27.32L292.43 38.86L294.54 46.9C294.36 51.01 293.46 58.75 289.62 67.03C289.53 67.73 289.42 68.44 289.3 69.15L290.06 70.03L293.41 78.15C294.56 93.98 289.22 110.81 278.61 125.33C278.83 126.38 279.02 127.45 279.17 128.53L281.71 131.06L288.21 144.07L289.44 152.94C288.38 158.54 287.16 163.12 285.95 166.88C293.86 175.3 298.35 186.45 298.35 198.37V228C323.61 228.19 344.1 248.79 344.1 274.09V358.52C363.56 363.92 377.88 381.79 377.88 402.94V519.34C377.88 544.76 357.2 565.43 331.79 565.43H46.09V565.44Z" fill="#00FF4E"/>
<path d="M46.09 551.44C28.39 551.44 14 537.04 14 519.35V402.95C14 385.25 28.4 370.86 46.09 370.86H47.77V274.1C47.77 256.4 62.17 242.01 79.86 242.01H93.51V198.38C93.51 186.16 100.38 175.51 110.45 170.09C108.56 162.71 109.31 154.6 112.66 146.47C113.39 144.71 114.14 143.14 114.75 141.88C115.13 141.09 115.64 140.04 115.84 139.53C115.85 139.11 115.75 138.1 115.32 137.03C115.11 136.52 114.77 135.78 114.4 135C113.38 132.84 112 129.89 110.95 126.3C107.24 113.55 106.89 93.26 108.89 82.31L115.45 77.19C115.5 68.68 117.03 61.48 120.11 55.25C121.31 52.82 122.58 50.89 123.52 49.47L121.73 36.38L132.41 19.76L147.34 15.26C151.26 16.99 159.41 20.57 165.57 28.46L167.77 28.3C172.35 31.38 177.18 37.04 179.75 44.81C179.86 44.77 179.96 44.73 180.07 44.69C181.54 44.15 182.9 43.73 184.14 43.37C186.46 39.62 189.61 36.06 194.93 32.18L208.68 31.9L216.66 37.24L217.79 29.64L231.19 16.08L245.18 13.82C253.28 17.95 259.09 21.43 264.87 31.08L273.32 34.75L280.53 46.29C280.4 49.21 279.68 56.1 275.94 63.07C275.68 66.62 274.93 69.92 274 72.86L279.44 79.17C280.48 93.51 274.37 109.54 263.01 122.4C264.52 125.78 265.65 130.04 265.61 135.57L269.18 137.32L275.67 150.33C273.73 160.54 271.27 166.81 269.24 171.14C278.36 176.85 284.34 186.99 284.34 198.37V242H297.99C315.69 242 330.08 256.4 330.08 274.09V370.85H331.76C349.46 370.85 363.85 385.25 363.85 402.94V519.34C363.85 537.04 349.45 551.43 331.76 551.43H46.09V551.44ZM197.07 166.26C197.4 164.23 197.8 162.38 198.19 160.72C198.11 160.59 198.02 160.44 197.93 160.29C197.33 160.18 196.31 160.06 194.75 160.06C193.68 160.06 192.47 160.12 191.17 160.23L186.98 157.48C186.77 160.6 186.19 163.53 185.24 166.25H197.07V166.26Z" fill="#FF00F9"/>
<path d="M46.09 539.44C35.01 539.44 26 530.43 26 519.35V402.95C26 391.87 35.01 382.86 46.09 382.86H59.68C59.73 382.86 59.77 382.82 59.77 382.77V274.1C59.77 263.02 68.78 254.01 79.86 254.01H105.42C105.47 254.01 105.51 253.97 105.51 253.92V198.38C105.51 187.3 114.52 178.29 125.6 178.29H128.85C128.57 177.9 128.07 177.32 127.64 176.83C126.03 174.97 123.82 172.43 122.51 168.59C120.74 163.39 121.17 157.33 123.75 151.05C124.34 149.61 124.99 148.28 125.55 147.1C126.37 145.41 127.07 143.95 127.44 142.62C128.21 139.83 127.83 135.96 126.44 132.53C126.11 131.71 125.69 130.82 125.25 129.88C124.31 127.89 123.26 125.64 122.47 122.95C119.37 112.3 118.98 93.85 120.7 84.47L128.13 84.95C127.8 83.18 127.53 81.28 127.48 79.28C127.28 71.71 128.4 65.59 130.88 60.57C131.76 58.78 132.72 57.33 133.57 56.05C134.21 55.08 134.77 54.24 135.09 53.55C135.94 51.71 135.91 48.75 135.02 46.96L134.79 46.47C134.29 45.3 134.12 44.91 131.83 42.88L142.51 26.26C146.62 28.07 154.77 31.65 158.84 40.3L161.08 38.28C165.67 41.37 170.63 48.89 169.47 59.92C168.96 64.79 166.6 68.38 165.04 70.76L164.55 71.51C163.77 72.73 163.49 73.33 163.4 73.61C163.5 73.88 163.7 74.28 163.94 74.72C168.57 65.81 175.74 59.07 184.2 55.98C185.65 55.45 187.05 55.04 188.4 54.65C189.72 54.27 191.63 53.71 192.48 53.26C192.54 53.14 192.59 53.02 192.65 52.9C194.23 49.55 196.13 46.19 202.02 41.89L216.61 51.66C219.91 51.53 224.6 50.67 225.98 49.71C227.97 47.66 228.97 44.83 228.49 42.59C228.17 41.74 227.12 39.58 226.34 38.09L239.74 24.53C247.3 28.38 250.79 30.68 254.99 37.95C255.32 38.52 255.64 39.13 255.97 39.76C256.08 39.97 256.22 40.23 256.35 40.48L268.56 45.78C268.49 47.3 267.98 53.93 264.04 59.6C264.26 66.72 261.37 72.92 258.73 78.09L267.48 80.06C268.33 91.68 262.89 104.99 252.93 115.68L252.36 116.29C251.42 117.29 250.01 118.8 249.78 119.41C249.61 119.94 249.66 121.67 249.69 122.71C249.69 123.04 249.72 123.26 249.74 123.4C249.82 123.52 249.9 123.62 249.97 123.73C252.03 126.67 253.89 130.28 253.58 136.65C253.47 138.84 252.96 140.77 252.32 142.42L263.88 148.1C261.71 159.53 258.95 165 256.93 168.99C255.54 171.73 255.02 172.76 254.84 175.39C254.8 175.99 254.77 176.59 254.74 177.19C254.72 177.59 254.7 178.01 254.67 178.42C264.61 179.62 272.34 188.11 272.34 198.37V253.91C272.34 253.96 272.38 254 272.43 254H297.99C309.07 254 318.08 263.01 318.08 274.09V382.76C318.08 382.81 318.12 382.85 318.17 382.85H331.76C342.84 382.85 351.85 391.86 351.85 402.94V519.34C351.85 530.42 342.84 539.43 331.76 539.43H46.09V539.44ZM208.75 178.26C208.64 177.58 208.56 176.89 208.5 176.2C208.09 171.03 209.17 166.44 210.11 162.39C210.33 161.44 210.56 160.48 210.75 159.53C210.73 158.83 210.15 157.16 207.62 153.19C206.4 151.27 204.35 148.07 194.73 148.07C193.29 148.07 191.73 148.15 190.09 148.29L187.85 141.55C177.21 140.84 168.54 135.14 163.12 125.45C162.42 128.36 162.84 132.35 163.41 136.25C163.43 136.38 163.45 136.51 163.47 136.64L170.66 135.31C176.33 149.72 176.52 160.45 171.24 167.19C170.14 168.6 169.33 169.91 168.77 171.18C168.27 172.34 168.19 175.02 168.12 177.38C168.12 177.67 168.1 177.96 168.09 178.26H208.73H208.75Z" fill="white"/>
<path d="M331.77 392.85H318.18C312.6 392.85 308.09 388.33 308.09 382.76V274.09C308.09 268.51 303.57 264 298 264H272.44C266.86 264 262.35 259.48 262.35 253.91V198.37C262.35 192.79 257.83 188.28 252.26 188.28H241.68C242.73 186.94 243.47 185.33 243.91 183.69C244.68 180.78 244.68 177.72 244.88 174.71C245.57 164.66 250.52 164.93 254.07 146.24C249.41 151.49 247.37 151.3 245.54 151.13C244.89 151.07 241.05 150.36 240.09 147.03C239.16 143.82 243.39 140.53 243.61 136.15C243.98 128.69 239.92 130.45 239.71 122.99C239.65 120.7 239.59 118.35 240.33 116.18C241.31 113.31 243.56 111.09 245.63 108.87C252.41 101.59 258.25 90.71 257.53 80.79C254.03 86.96 252.36 88.58 248.86 88.01C246.99 87.71 245.8 85.7 245.77 83.81C245.74 81.92 246.57 80.14 247.38 78.43C250.42 72.07 254.88 65.46 253.96 58.47C253.85 57.61 253.5 56.36 254.25 55.71C258.3 52.2 258.6 45.34 258.6 45.34C250.51 53.6 248.6 46.83 246.37 42.95C243.44 37.87 241.78 36.77 235.24 33.44C235.24 33.44 237.75 38.23 238.19 39.97C239.7 45.99 237.4 52.45 233.02 56.85C228.64 61.25 217.62 61.67 215.85 61.67C209.7 61.67 205.5 59.97 207.95 49.96C202.91 53.64 202.54 55.62 201.19 58.27C198.82 62.94 192.59 63.56 187.67 65.36C178.68 68.64 172.59 77.39 169.98 86.6C167.41 95.67 167.21 108.36 169.44 114.99C172.45 123.93 181.15 139.61 208.45 126.82C207.39 126.49 194.1 130.87 190.88 121.73C189.85 118.83 190.16 115.12 191.49 113C192.53 111.33 194.54 109.87 195.82 109.21C202.71 105.68 210.41 108.46 214.36 113.66C216.86 116.96 218.09 120.07 218.33 123.1C218.6 126.47 217.51 130.39 213.13 132.49C209.31 134.32 202.21 130.34 189.23 138.34C205.6 136.88 212.22 141.77 216.08 147.83C218.62 151.82 221.54 156.82 220.59 161.45C219.64 166.08 218.12 170.71 218.49 175.43C218.89 180.5 221.71 185.25 225.77 188.27H155.88C155.95 188.17 156.02 188.08 156.09 187.97C159.54 182.35 156.91 173.49 159.62 167.22C160.61 164.92 161.94 162.88 163.39 161.03C167.48 155.81 163.06 143.27 161.37 138.99C161.28 148.94 158.78 149.99 156.76 147.5C154.74 145.01 154.05 141.26 153.53 137.71C152.78 132.53 152.22 127.03 153.69 122.11C154.55 119.22 156.07 116.74 157.12 113.96C159.08 108.78 159.36 102.83 159.47 97.07C159.55 92.88 159.53 88.49 158.02 84.79C156.48 81.01 153.42 77.95 153.38 73.67C153.36 70.82 154.74 68.29 156.15 66.1C157.56 63.91 159.25 61.68 159.54 58.87C160.48 49.91 155.51 46.57 155.51 46.57C155.51 46.57 158.41 52.06 153.93 52.56C151.79 52.8 151.26 48.63 150.41 46.08C148.44 40.14 143.21 37.47 138.49 35.4C141.76 38.31 142.82 39.82 143.98 42.49C146.22 46.99 146.3 53.16 144.17 57.75C142.95 60.37 141.13 62.43 139.85 65C137.83 69.09 137.36 74.16 137.49 79.02C137.62 83.88 139.74 88.84 139.75 93.7C139.75 95.57 139.75 97.93 138.35 98.61C135.81 99.84 134.02 98.22 133.25 96.65C132.48 95.08 130.64 88.12 130.55 86.27C129.08 94.29 129.47 111.14 132.09 120.16C132.98 123.23 134.55 125.88 135.72 128.78C137.76 133.82 138.57 139.93 137.09 145.29C136.14 148.73 134.33 151.64 133 154.86C131.67 158.08 130.83 162.02 131.97 165.36C133.21 168.98 136.37 170.84 138.01 174.18C139.76 177.77 139.46 182.35 139.28 186.59C139.26 187.15 139.24 187.73 139.3 188.29H125.6C120.02 188.29 115.51 192.81 115.51 198.38V253.92C115.51 259.49 110.99 264.01 105.42 264.01H79.86C74.28 264.01 69.77 268.53 69.77 274.1V382.77C69.77 388.35 65.25 392.86 59.68 392.86H46.09C40.51 392.86 36 397.38 36 402.95V519.35C36 524.92 40.52 529.44 46.09 529.44H331.77C337.35 529.44 341.86 524.92 341.86 519.35V402.95C341.86 397.37 337.34 392.86 331.77 392.86V392.85Z" fill="black"/>
</g>
<defs>
<clipPath id="clip0_1267_68">
<rect width="377.87" height="565.44" fill="white"/>
</clipPath>
</defs>
</svg>
