<svg width="378" height="566" viewBox="0 0 378 566" fill="none" xmlns="http://www.w3.org/2000/svg">
<g clip-path="url(#clip0_1267_74)">
<path d="M331.78 565.44C357.2 565.44 377.87 544.76 377.87 519.35V402.95C377.87 381.8 363.55 363.93 344.09 358.53V274.09C344.09 248.79 323.6 228.18 298.34 228V198.37C298.34 184.81 292.4 172.16 282.38 163.5C282.62 156.15 281.19 148.57 278.12 141.13C277.78 140.3 277.43 139.51 277.1 138.79C278.12 136.53 279.32 133.63 280.32 130.2C284.78 114.87 285.03 92.52 282.7 79.78L277.54 71.26L276.03 70.08C275.3 62.31 273.39 55.37 270.26 49.03C269.79 48.08 269.32 47.2 268.86 46.38L269.97 38.27L267.88 28.8L257.2 12.18L249.46 6.34L234.53 1.84L224.86 2.43C220.86 4.19 212.16 8.01 204.47 16.08L202.25 16.67C199.46 18.55 196.86 20.84 194.52 23.47C193.45 22.59 192.33 21.72 191.15 20.86L183.18 18.17L169.43 17.89L168.42 18.19L156.61 6.23L148.88 2.25L134.89 -0.00999832L126.3 1.34C118 5.57 110.48 9.98 103.53 19.91L98.9501 21.9L92.6501 27.32L85.4401 38.86L83.3301 46.9C83.5101 51.01 84.4101 58.75 88.2501 67.03C88.3401 67.73 88.4501 68.44 88.5701 69.15L87.8101 70.03L84.4601 78.15C83.3101 93.98 88.6501 110.81 99.2601 125.33C99.0401 126.38 98.8501 127.45 98.7001 128.53L96.1601 131.06L89.6601 144.07L88.4301 152.94C89.4901 158.54 90.7101 163.12 91.9201 166.88C84.0101 175.3 79.5201 186.45 79.5201 198.37V228C54.2601 228.19 33.7701 248.79 33.7701 274.09V358.52C14.3101 363.92 -0.0098877 381.79 -0.0098877 402.94V519.34C-0.0098877 544.76 20.6701 565.43 46.0801 565.43H331.78V565.44Z" fill="#2600FF"/>
<path d="M331.78 551.44C349.48 551.44 363.87 537.04 363.87 519.35V402.95C363.87 385.25 349.47 370.86 331.78 370.86H330.1V274.1C330.1 256.4 315.7 242.01 298.01 242.01H284.36V198.38C284.36 186.16 277.49 175.51 267.42 170.09C269.31 162.71 268.56 154.6 265.21 146.47C264.48 144.71 263.73 143.14 263.12 141.88C262.74 141.09 262.23 140.04 262.03 139.53C262.02 139.11 262.12 138.1 262.55 137.03C262.76 136.52 263.1 135.78 263.47 135C264.49 132.84 265.87 129.89 266.92 126.3C270.63 113.55 270.98 93.26 268.98 82.31L262.42 77.19C262.37 68.68 260.84 61.48 257.76 55.25C256.56 52.82 255.29 50.89 254.35 49.47L256.14 36.38L245.46 19.76L230.53 15.26C226.61 16.99 218.46 20.57 212.3 28.46L210.1 28.3C205.52 31.38 200.69 37.04 198.12 44.81C198.01 44.77 197.91 44.73 197.8 44.69C196.33 44.15 194.97 43.73 193.73 43.37C191.41 39.62 188.26 36.06 182.94 32.18L169.19 31.9L161.21 37.24L160.08 29.64L146.68 16.08L132.69 13.82C124.59 17.95 118.78 21.43 113 31.08L104.55 34.75L97.3401 46.29C97.4701 49.21 98.1901 56.1 101.93 63.07C102.19 66.62 102.94 69.92 103.87 72.86L98.4301 79.17C97.3901 93.51 103.5 109.54 114.86 122.4C113.35 125.78 112.22 130.04 112.26 135.57L108.69 137.32L102.2 150.33C104.14 160.54 106.6 166.81 108.63 171.14C99.5101 176.85 93.5301 186.99 93.5301 198.37V242H79.8801C62.1801 242 47.7901 256.4 47.7901 274.09V370.85H46.1101C28.4101 370.85 14.0201 385.25 14.0201 402.94V519.34C14.0201 537.04 28.4201 551.43 46.1101 551.43H331.78V551.44ZM180.8 166.26C180.47 164.23 180.07 162.38 179.68 160.72C179.76 160.59 179.85 160.44 179.94 160.29C180.54 160.18 181.56 160.06 183.12 160.06C184.19 160.06 185.4 160.12 186.7 160.23L190.89 157.48C191.1 160.6 191.68 163.53 192.63 166.25H180.8V166.26Z" fill="#2600FF"/>
<path d="M331.78 539.44C342.86 539.44 351.87 530.43 351.87 519.35V402.95C351.87 391.87 342.86 382.86 331.78 382.86H318.19C318.14 382.86 318.1 382.82 318.1 382.77V274.1C318.1 263.02 309.09 254.01 298.01 254.01H272.45C272.4 254.01 272.36 253.97 272.36 253.92V198.38C272.36 187.3 263.35 178.29 252.27 178.29H249.02C249.3 177.9 249.8 177.32 250.23 176.83C251.84 174.97 254.05 172.43 255.36 168.59C257.13 163.39 256.7 157.33 254.12 151.05C253.53 149.61 252.88 148.28 252.32 147.1C251.5 145.41 250.8 143.95 250.43 142.62C249.66 139.83 250.04 135.96 251.43 132.53C251.76 131.71 252.18 130.82 252.62 129.88C253.56 127.89 254.61 125.64 255.4 122.95C258.5 112.3 258.89 93.85 257.17 84.47L249.74 84.95C250.07 83.18 250.34 81.28 250.39 79.28C250.59 71.71 249.47 65.59 246.99 60.57C246.11 58.78 245.15 57.33 244.3 56.05C243.66 55.08 243.1 54.24 242.78 53.55C241.93 51.71 241.96 48.75 242.85 46.96L243.08 46.47C243.58 45.3 243.75 44.91 246.04 42.88L235.36 26.26C231.25 28.07 223.1 31.65 219.03 40.3L216.79 38.28C212.2 41.37 207.24 48.89 208.4 59.92C208.91 64.79 211.27 68.38 212.83 70.76L213.32 71.51C214.1 72.73 214.38 73.33 214.47 73.61C214.37 73.88 214.17 74.28 213.93 74.72C209.3 65.81 202.13 59.07 193.67 55.98C192.22 55.45 190.82 55.04 189.47 54.65C188.15 54.27 186.24 53.71 185.39 53.26C185.33 53.14 185.28 53.02 185.22 52.9C183.64 49.55 181.74 46.19 175.85 41.89L161.26 51.66C157.96 51.53 153.27 50.67 151.89 49.71C149.9 47.66 148.9 44.83 149.38 42.59C149.7 41.74 150.75 39.58 151.53 38.09L138.13 24.53C130.57 28.38 127.08 30.68 122.88 37.95C122.55 38.52 122.23 39.13 121.9 39.76C121.79 39.97 121.65 40.23 121.52 40.48L109.31 45.78C109.38 47.3 109.89 53.93 113.83 59.6C113.61 66.72 116.5 72.92 119.14 78.09L110.39 80.06C109.54 91.68 114.98 104.99 124.94 115.68L125.51 116.29C126.45 117.29 127.86 118.8 128.09 119.41C128.26 119.94 128.21 121.67 128.18 122.71C128.18 123.04 128.15 123.26 128.13 123.4C128.05 123.52 127.97 123.62 127.9 123.73C125.84 126.67 123.98 130.28 124.29 136.65C124.4 138.84 124.91 140.77 125.55 142.42L113.99 148.1C116.16 159.53 118.92 165 120.94 168.99C122.33 171.73 122.85 172.76 123.03 175.39C123.07 175.99 123.1 176.59 123.13 177.19C123.15 177.59 123.17 178.01 123.2 178.42C113.26 179.62 105.53 188.11 105.53 198.37V253.91C105.53 253.96 105.49 254 105.44 254H79.8801C68.8001 254 59.7901 263.01 59.7901 274.09V382.76C59.7901 382.81 59.7501 382.85 59.7001 382.85H46.1101C35.0301 382.85 26.0201 391.86 26.0201 402.94V519.34C26.0201 530.42 35.0301 539.43 46.1101 539.43H331.78V539.44ZM169.12 178.26C169.23 177.58 169.31 176.89 169.37 176.2C169.78 171.03 168.7 166.44 167.76 162.39C167.54 161.44 167.31 160.48 167.12 159.53C167.14 158.83 167.72 157.16 170.25 153.19C171.47 151.27 173.52 148.07 183.14 148.07C184.58 148.07 186.14 148.15 187.78 148.29L190.02 141.55C200.66 140.84 209.33 135.14 214.75 125.45C215.45 128.36 215.03 132.35 214.46 136.25C214.44 136.38 214.42 136.51 214.4 136.64L207.21 135.31C201.54 149.72 201.35 160.45 206.63 167.19C207.73 168.6 208.54 169.91 209.1 171.18C209.6 172.34 209.68 175.02 209.75 177.38C209.75 177.67 209.77 177.96 209.78 178.26H169.14H169.12Z" fill="#2600FF"/>
<path d="M46.1001 392.85H59.6901C65.2701 392.85 69.7801 388.33 69.7801 382.76V274.09C69.7801 268.51 74.3001 264 79.8701 264H105.43C111.01 264 115.52 259.48 115.52 253.91V198.37C115.52 192.79 120.04 188.28 125.61 188.28H136.19C135.14 186.94 134.4 185.33 133.96 183.69C133.19 180.78 133.19 177.72 132.99 174.71C132.3 164.66 127.35 164.93 123.8 146.24C128.46 151.49 130.5 151.3 132.33 151.13C132.98 151.07 136.82 150.36 137.78 147.03C138.71 143.82 134.48 140.53 134.26 136.15C133.89 128.69 137.95 130.45 138.16 122.99C138.22 120.7 138.28 118.35 137.54 116.18C136.56 113.31 134.31 111.09 132.24 108.87C125.46 101.59 119.62 90.71 120.34 80.79C123.84 86.96 125.51 88.58 129.01 88.01C130.88 87.71 132.07 85.7 132.1 83.81C132.13 81.92 131.3 80.14 130.49 78.43C127.45 72.07 122.99 65.46 123.91 58.47C124.02 57.61 124.37 56.36 123.62 55.71C119.57 52.2 119.27 45.34 119.27 45.34C127.36 53.6 129.27 46.83 131.5 42.95C134.43 37.87 136.09 36.77 142.63 33.44C142.63 33.44 140.12 38.23 139.68 39.97C138.17 45.99 140.47 52.45 144.85 56.85C149.23 61.25 160.25 61.67 162.02 61.67C168.17 61.67 172.37 59.97 169.92 49.96C174.96 53.64 175.33 55.62 176.68 58.27C179.05 62.94 185.28 63.56 190.2 65.36C199.19 68.64 205.28 77.39 207.89 86.6C210.46 95.67 210.66 108.36 208.43 114.99C205.42 123.93 196.72 139.61 169.42 126.82C170.48 126.49 183.77 130.87 186.99 121.73C188.02 118.83 187.71 115.12 186.38 113C185.34 111.33 183.33 109.87 182.05 109.21C175.16 105.68 167.46 108.46 163.51 113.66C161.01 116.96 159.78 120.07 159.54 123.1C159.27 126.47 160.36 130.39 164.74 132.49C168.56 134.32 175.66 130.34 188.64 138.34C172.27 136.88 165.65 141.77 161.79 147.83C159.25 151.82 156.33 156.82 157.28 161.45C158.23 166.08 159.75 170.71 159.38 175.43C158.98 180.5 156.16 185.25 152.1 188.27H221.99C221.92 188.17 221.85 188.08 221.78 187.97C218.33 182.35 220.96 173.49 218.25 167.22C217.26 164.92 215.93 162.88 214.48 161.03C210.39 155.81 214.81 143.27 216.5 138.99C216.59 148.94 219.09 149.99 221.11 147.5C223.13 145.01 223.82 141.26 224.34 137.71C225.09 132.53 225.65 127.03 224.18 122.11C223.32 119.22 221.8 116.74 220.75 113.96C218.79 108.78 218.51 102.83 218.4 97.07C218.32 92.88 218.34 88.49 219.85 84.79C221.39 81.01 224.45 77.95 224.49 73.67C224.51 70.82 223.13 68.29 221.72 66.1C220.31 63.91 218.62 61.68 218.33 58.87C217.39 49.91 222.36 46.57 222.36 46.57C222.36 46.57 219.46 52.06 223.94 52.56C226.08 52.8 226.61 48.63 227.46 46.08C229.43 40.14 234.66 37.47 239.38 35.4C236.11 38.31 235.05 39.82 233.89 42.49C231.65 46.99 231.57 53.16 233.7 57.75C234.92 60.37 236.74 62.43 238.02 65C240.04 69.09 240.51 74.16 240.38 79.02C240.25 83.88 238.13 88.84 238.12 93.7C238.12 95.57 238.12 97.93 239.52 98.61C242.06 99.84 243.85 98.22 244.62 96.65C245.39 95.08 247.23 88.12 247.32 86.27C248.79 94.29 248.4 111.14 245.78 120.16C244.89 123.23 243.32 125.88 242.15 128.78C240.11 133.82 239.3 139.93 240.78 145.29C241.73 148.73 243.54 151.64 244.87 154.86C246.2 158.08 247.04 162.02 245.9 165.36C244.66 168.98 241.5 170.84 239.86 174.18C238.11 177.77 238.41 182.35 238.59 186.59C238.61 187.15 238.63 187.73 238.57 188.29H252.27C257.85 188.29 262.36 192.81 262.36 198.38V253.92C262.36 259.49 266.88 264.01 272.45 264.01H298.01C303.59 264.01 308.1 268.53 308.1 274.1V382.77C308.1 388.35 312.62 392.86 318.19 392.86H331.78C337.36 392.86 341.87 397.38 341.87 402.95V519.35C341.87 524.92 337.35 529.44 331.78 529.44H46.1001C40.5201 529.44 36.0101 524.92 36.0101 519.35V402.95C36.0101 397.37 40.5301 392.86 46.1001 392.86V392.85Z" fill="#2600FF"/>
<path d="M132.604 69.5762V64.9609H152.825V69.5762H145.521V89H139.909V69.5762H132.604ZM161.358 89.332C155.714 89.332 152.294 85.5801 152.294 80.0352C152.294 74.4902 155.714 70.7383 161.358 70.7383C167.003 70.7383 170.423 74.4902 170.423 80.0352C170.423 85.5801 167.003 89.332 161.358 89.332ZM161.392 85.1152C163.517 85.1152 164.712 83.0234 164.712 80.002C164.712 76.9805 163.517 74.8887 161.392 74.8887C159.2 74.8887 158.005 76.9805 158.005 80.002C158.005 83.0234 159.2 85.1152 161.392 85.1152ZM176.466 89.332C174.806 89.332 173.444 88.0039 173.478 86.3105C173.444 84.6836 174.806 83.3555 176.466 83.3555C178.06 83.3555 179.454 84.6836 179.487 86.3105C179.454 88.0039 178.06 89.332 176.466 89.332ZM200.505 69.6758C200.505 74.5234 202.63 79.8027 207.942 81.9609L205.386 85.7129C201.85 84.252 199.509 81.3965 198.147 77.9102C196.819 81.7285 194.412 84.8828 190.843 86.4766L188.12 82.7246C193.399 80.4004 195.624 74.8223 195.624 69.6758V68.4805H189.382V64.5957H206.614V68.4805H200.505V69.6758ZM214.019 61.707V92.1875H209.204V61.707H214.019ZM243.835 61.7402V84.7168H239.021V82.5254H233.343V79.3047H239.021V61.7402H243.835ZM244.466 87.8711V91.6895H221.423V82.5254H225.606V78.6738C222.983 78.7734 220.477 78.8066 218.235 78.8066L217.704 75.0547C223.282 74.9883 230.753 74.9219 237.161 74.125L237.427 77.5117C235.136 77.9102 232.762 78.1924 230.421 78.375V84.0859H226.204V87.8711H244.466ZM227.565 62.7031C232.015 62.7031 235.202 64.9941 235.202 68.2148C235.202 71.502 232.015 73.627 227.565 73.627C223.05 73.627 219.896 71.502 219.896 68.2148C219.896 64.9941 223.05 62.7031 227.565 62.7031ZM227.565 66.1895C225.673 66.1895 224.411 66.8535 224.411 68.2148C224.411 69.543 225.673 70.207 227.565 70.207C229.358 70.207 230.653 69.543 230.687 68.2148C230.653 66.8535 229.358 66.1895 227.565 66.1895ZM149.322 108.961V133H143.645V114.273H143.512L138.1 117.594V112.68L144.043 108.961H149.322ZM163.666 108.629C168.912 108.629 173.66 111.75 173.66 120.449C173.693 128.518 169.676 133.332 163.533 133.332C158.453 133.332 155.033 130.145 154.568 126.027H160.18C160.512 127.654 161.807 128.484 163.533 128.484C166.555 128.484 168.049 125.729 168.082 121.279H167.916C166.854 123.438 164.463 124.699 161.74 124.699C157.424 124.699 154.336 121.479 154.336 117.062C154.303 112.082 158.088 108.629 163.666 108.629ZM163.699 112.979C161.441 112.979 159.814 114.705 159.814 116.863C159.848 119.055 161.408 120.748 163.666 120.748C165.857 120.748 167.551 118.988 167.551 116.863C167.518 114.738 165.891 112.979 163.699 112.979ZM201.65 105.74V128.186H196.902V117.461H191.789V123.504H177.08V107.732H181.895V112.148H187.074V107.732H191.789V113.643H196.902V105.74H201.65ZM202.281 131.871V135.689H181.197V125.928H186.045V131.871H202.281ZM181.895 119.785H187.074V115.768H181.895V119.785ZM232.363 105.707V136.188H227.881V121.213H226.32V134.826H221.904V127.023L219.879 129.514C218.385 128.252 217.405 126.492 216.791 124.434C216.127 126.608 215.098 128.518 213.438 129.879C211.761 128.551 210.715 126.642 210.051 124.5C209.453 126.509 208.507 128.269 207.029 129.514L204.373 126.359C207.826 123.404 207.959 118.457 207.959 114.008V112.779H205.469V108.994H213.139V112.779H212.01V114.008C212.01 117.062 212.076 120.582 213.438 123.504C214.782 120.565 214.815 117.062 214.832 114.008V112.779H213.77V108.994H220.908V112.779H218.916V114.008C218.883 118.225 219.032 122.84 221.904 125.828V106.105H226.32V117.361H227.881V105.707H232.363ZM118.244 154.953C118.211 158.141 119.672 161.245 123.523 162.855V150.271H127.939V156.945H129.998V149.74H134.547V168.334H129.998V160.797H127.939V167.371H123.523V163.354L121.266 166.641C118.775 165.678 117.065 164.001 115.986 161.893C114.891 164.416 113.048 166.508 110.275 167.637L107.719 163.951C112.068 162.025 113.562 158.34 113.562 154.953V151.566H118.244V154.953ZM124.021 168.633C130.496 168.633 134.68 170.824 134.713 174.41C134.68 177.996 130.496 180.221 124.021 180.188C117.547 180.221 113.363 177.996 113.396 174.41C113.363 170.824 117.547 168.633 124.021 168.633ZM124.021 172.219C120.27 172.186 118.145 172.916 118.178 174.41C118.145 175.904 120.27 176.602 124.021 176.602C127.773 176.602 129.865 175.904 129.898 174.41C129.865 172.916 127.773 172.186 124.021 172.219ZM146.334 150.537C151.016 150.537 154.535 153.492 154.568 157.576C154.535 161.627 151.016 164.549 146.334 164.582C141.619 164.549 138.033 161.627 138.066 157.576C138.033 153.492 141.619 150.537 146.334 150.537ZM146.334 154.422C144.242 154.455 142.682 155.518 142.682 157.576C142.682 159.602 144.209 160.73 146.334 160.73C148.426 160.73 149.92 159.602 149.92 157.576C149.92 155.518 148.426 154.455 146.334 154.422ZM163.268 149.707V164.881H158.486V149.707H163.268ZM163.268 166.043V174.609H147.363V176.137H163.998V179.855H142.715V171.156H158.486V169.695H142.615V166.043H163.268ZM194.844 164.582V168.367H183.289V170.725H191.49V180.154H186.709V174.51H170.141V170.725H178.508V168.367H167.053V164.582H194.844ZM183.289 149.807V152.43H192.188V156.115H183.721C184.269 157.958 186.975 159.768 193.748 160.166L192.254 163.719C186.543 163.354 182.791 161.81 180.898 159.502C178.973 161.81 175.221 163.354 169.51 163.719L168.082 160.166C174.806 159.768 177.495 157.958 178.076 156.115H169.643V152.43H178.508V149.807H183.289ZM220.609 149.707V161.428H224.926V165.379H220.609V180.188H215.895V149.707H220.609ZM214.102 154.156V157.941H196.271V154.156H202.879V150.205H207.66V154.156H214.102ZM205.27 159.402C209.719 159.402 213.105 162.457 213.139 166.74C213.105 171.057 209.719 174.078 205.27 174.078C200.688 174.078 197.334 171.057 197.367 166.74C197.334 162.457 200.688 159.402 205.27 159.402ZM205.27 163.254C203.311 163.287 201.916 164.549 201.949 166.74C201.916 168.998 203.311 170.193 205.27 170.193C207.162 170.193 208.523 168.998 208.557 166.74C208.523 164.549 207.162 163.287 205.27 163.254ZM240.332 154.156V157.941H225.789V154.156H230.77V150.537H235.484V154.156H240.332ZM233.16 159.104C237.078 159.104 239.867 162.125 239.867 166.408C239.867 170.725 237.078 173.779 233.16 173.779C229.242 173.779 226.387 170.725 226.387 166.408C226.387 162.125 229.242 159.104 233.16 159.104ZM233.16 163.055C231.6 163.021 230.57 164.25 230.57 166.408C230.57 168.6 231.6 169.729 233.16 169.729C234.621 169.729 235.684 168.6 235.684 166.408C235.684 164.25 234.621 163.021 233.16 163.055ZM252.285 149.707V180.188H247.736V165.777H245.777V178.926H241.328V150.271H245.777V161.959H247.736V149.707H252.285ZM259.357 177.332C257.697 177.332 256.336 176.004 256.369 174.311C256.336 172.684 257.697 171.355 259.357 171.355C260.951 171.355 262.346 172.684 262.379 174.311C262.346 176.004 260.951 177.332 259.357 177.332ZM119.406 195.766C123.49 195.766 126.18 199.982 126.18 206.922C126.18 213.895 123.49 218.145 119.406 218.145C115.389 218.145 112.766 213.895 112.766 206.922C112.766 199.982 115.389 195.766 119.406 195.766ZM119.406 200.281C117.945 200.281 117.115 202.34 117.148 206.922C117.115 211.537 117.945 213.562 119.406 213.562C120.934 213.562 121.797 211.537 121.797 206.922C121.797 202.34 120.934 200.281 119.406 200.281ZM139.029 193.707V224.188H134.447V209.08H132.189V222.826H127.674V194.105H132.189V205.195H134.447V193.707H139.029ZM167.252 194.504V198.057H163.533V201.443H167.02V204.996H144.541V201.443H148.027V198.057H144.309V194.504H167.252ZM169.709 206.291V210.01H141.918V206.291H169.709ZM166.389 211.438V219.24H149.787V220.535H167.119V224.021H145.072V216.02H161.641V214.824H145.072V211.438H166.389ZM152.809 201.443H158.719V198.057H152.809V201.443ZM199.127 210.508V214.293H193.084V224.221H188.303V214.293H182.326V224.221H177.512V214.293H171.27V210.508H199.127ZM195.906 195.102V207.52H174.457V195.102H195.906ZM179.139 198.887V203.701H191.125V198.887H179.139ZM226.287 193.707V212.035H221.506V193.707H226.287ZM226.287 213.297V224.188H221.506V217.082H205.236V213.297H226.287ZM218.684 195.367V199.186H212.873C213.056 202.489 215.064 205.942 219.945 207.42L217.488 211.105C214.151 210.093 211.86 208.001 210.516 205.395C209.104 208.233 206.714 210.508 203.178 211.637L200.721 207.951C205.685 206.374 207.793 202.705 207.992 199.186H201.982V195.367H218.684ZM265.533 209.113V212.865H237.676V209.113H249.197V206.424H240.996V195.168H262.246V198.953H245.777V202.639H262.545V206.424H253.979V209.113H265.533ZM262.645 219.871V223.689H240.963V214.725H245.645V219.871H262.645ZM130.828 237.707V268.188H126.312V237.707H130.828ZM124.553 238.139V266.826H120.104V251.818H116.451V248H120.104V238.139H124.553ZM114.26 245.709C114.26 250.723 115.588 255.77 120.104 258.359L117.348 261.846C114.708 260.335 113.015 257.812 112.002 254.74C110.973 258.077 109.229 260.899 106.557 262.543L103.701 259.023C108.25 256.201 109.645 250.756 109.645 245.709V244.48H104.93V240.662H118.576V244.48H114.26V245.709ZM154.27 238.139V249.361H156.129V237.707H160.645V268.188H156.129V253.213H154.27V266.859H149.887V238.139H154.27ZM140.656 241.293V245.111H138.498V256.932C139.146 256.865 139.843 256.749 140.59 256.566L140.922 260.484C138.797 260.916 137.27 260.982 135.609 260.982H134.148V241.293H140.656ZM148.459 241.293V245.111H146.035V256.965C146.849 256.915 147.729 256.799 148.725 256.566L148.99 260.518C146.766 260.949 145.105 260.982 143.18 260.982H141.785V241.293H148.459ZM198.629 260.883V264.768H170.771V260.883H182.293V255.537H173.627V239.6H178.408V244.082H190.859V239.6H195.641V255.537H187.008V260.883H198.629ZM178.408 251.752H190.859V247.834H178.408V251.752ZM226.486 237.707V268.188H221.938V253.113H219.547V266.727H215.098V238.172H219.547V249.295H221.938V237.707H226.486ZM206.066 240.994V256.699C208.341 256.633 210.848 256.417 213.537 255.902L214.002 260.02C209.984 260.717 206.498 260.916 203.41 260.883H201.285V240.994H206.066ZM254.842 240.197V243.053C254.842 246.871 254.842 251.221 253.613 257.795L248.766 257.297C249.928 251.719 250.011 247.485 250.061 243.982H232.396V240.197H254.842ZM257.332 260.783V264.635H229.541V260.783H239.203V250.424H243.951V260.783H257.332ZM265.799 262.477L262.844 272.072H258.959L260.553 262.477H265.799ZM85.0078 300.6C91.6816 300.6 95.8984 302.725 95.9316 306.41C95.8984 310.029 91.6816 312.221 85.0078 312.188C78.3672 312.221 74.084 310.029 74.084 306.41C74.084 302.725 78.3672 300.6 85.0078 300.6ZM85.0078 304.152C81.0234 304.119 78.832 304.883 78.8652 306.41C78.832 307.904 81.0234 308.568 85.0078 308.602C88.959 308.568 91.1836 307.904 91.1836 306.41C91.1836 304.883 88.959 304.119 85.0078 304.152ZM95.7988 283.035V285.492C95.7988 287.883 95.7988 290.539 94.9355 293.66L90.2207 293.229C90.8682 290.639 90.9844 288.696 91.0176 286.754H74.4492V283.035H95.7988ZM99.0195 295.121V298.973H71.3945V295.121H81.3887V289.941H86.1035V295.121H99.0195ZM128.504 299.105V302.857H116.85V312.188H112.102V302.857H100.646V299.105H128.504ZM108.516 282.869V286.156H120.502V282.869H125.283V296.416H103.801V282.869H108.516ZM108.516 292.598H120.502V289.875H108.516V292.598ZM146.201 282.504C148.608 282.504 150.7 283.301 152.178 284.662H158.719V281.707H163.467V296.881H158.719V294.49H152.145C150.7 295.852 148.592 296.648 146.201 296.648C141.52 296.648 138 293.727 138.033 289.543C138 285.426 141.52 282.504 146.201 282.504ZM146.201 286.355C144.043 286.355 142.549 287.484 142.549 289.543C142.549 291.668 144.043 292.797 146.201 292.797C148.26 292.797 149.754 291.668 149.754 289.543C149.754 287.484 148.26 286.355 146.201 286.355ZM163.467 298.076V306.609H147.861V308.137H164.264V311.855H143.047V303.123H158.719V301.729H143.047V298.076H163.467ZM154.203 288.314C154.253 288.713 154.303 289.128 154.303 289.543C154.303 289.958 154.253 290.373 154.203 290.771H158.719V288.314H154.203ZM192.652 281.74V298.906H187.871V281.74H192.652ZM192.652 300.201V311.855H172.066V300.201H192.652ZM176.748 303.953V308.037H187.971V303.953H176.748ZM179.006 285.758C178.973 289.277 180.898 292.73 185.945 294.225L183.654 297.877C180.201 296.897 177.894 294.922 176.549 292.365C175.154 295.154 172.747 297.362 169.145 298.441L166.82 294.689C172.1 293.162 174.025 289.344 174.025 285.758V282.836H179.006V285.758ZM222.037 281.707V312.188H217.223V281.707H222.037ZM215.197 286.189V290.008H197.068V286.189H203.709V282.139H208.557V286.189H215.197ZM206.199 291.402C210.715 291.402 214.102 294.457 214.102 298.74C214.102 303.057 210.715 306.078 206.199 306.078C201.617 306.078 198.23 303.057 198.23 298.74C198.23 294.457 201.617 291.402 206.199 291.402ZM206.199 295.254C204.174 295.287 202.779 296.549 202.812 298.74C202.779 300.998 204.174 302.193 206.199 302.193C208.158 302.193 209.52 300.998 209.52 298.74C209.52 296.549 208.158 295.287 206.199 295.254ZM257.598 281.707V293.428H261.914V297.379H257.598V312.188H252.883V281.707H257.598ZM251.09 286.156V289.941H233.26V286.156H239.867V282.205H244.648V286.156H251.09ZM242.258 291.402C246.707 291.402 250.094 294.457 250.127 298.74C250.094 303.057 246.707 306.078 242.258 306.078C237.676 306.078 234.322 303.057 234.355 298.74C234.322 294.457 237.676 291.402 242.258 291.402ZM242.258 295.254C240.299 295.287 238.904 296.549 238.938 298.74C238.904 300.998 240.299 302.193 242.258 302.193C244.15 302.193 245.512 300.998 245.545 298.74C245.512 296.549 244.15 295.287 242.258 295.254ZM288.609 300.832V311.822H267.857V300.832H288.609ZM272.605 304.551V308.104H283.861V304.551H272.605ZM288.609 281.74V299.637H283.861V295.553H279.146V291.734H283.861V289.244H279.146V285.459H283.861V281.74H288.609ZM277.486 283.035V292.697H268.688V295.154C273.137 295.121 275.594 295.021 278.449 294.59L278.814 298.309C275.428 298.939 272.439 298.973 266.297 298.939H263.973V289.145H272.705V286.82H263.939V283.035H277.486ZM296.346 309.332C294.686 309.332 293.324 308.004 293.357 306.311C293.324 304.684 294.686 303.355 296.346 303.355C297.939 303.355 299.334 304.684 299.367 306.311C299.334 308.004 297.939 309.332 296.346 309.332ZM103.402 348.85V352.734H75.5449V348.85H81.5547V341.611C79.2803 340.167 77.9023 338.009 77.9023 335.336C77.9023 330.355 82.7832 327.068 89.4238 327.068C96.0645 327.068 101.012 330.355 101.012 335.336C101.012 337.959 99.667 340.084 97.459 341.512V348.85H103.402ZM89.4238 330.82C85.2734 330.787 82.6172 332.414 82.6504 335.336C82.6172 338.225 85.2734 339.918 89.4238 339.918C93.541 339.918 96.2637 338.225 96.2637 335.336C96.2637 332.414 93.541 330.787 89.4238 330.82ZM86.2695 348.85H92.6113V343.338C91.5986 343.521 90.5361 343.604 89.4238 343.604C88.3115 343.604 87.2656 343.521 86.2695 343.338V348.85ZM130.197 326.902V330.654H122.361C123.142 332.464 125.831 334.307 131.658 334.771L129.998 338.523C124.038 337.992 120.386 335.884 118.775 333.045C117.198 335.884 113.579 337.992 107.619 338.523L106.025 334.771C111.72 334.307 114.426 332.464 115.223 330.654H107.453V326.902H130.197ZM129.4 345.131V355.855H108.117V345.131H129.4ZM112.799 348.883V352.037H124.752V348.883H112.799ZM132.721 339.42V343.172H104.93V339.42H132.721ZM166.986 325.707V336.963H170.141V340.914H166.986V356.188H162.105V346.857L159.682 349.646C157.789 348.169 156.644 346.011 155.93 343.471C155.149 346.11 153.888 348.368 151.812 349.879C149.804 348.401 148.542 346.177 147.795 343.604C147.081 345.994 145.985 348.036 144.242 349.447L141.055 346.26C145.039 343.039 145.471 337.826 145.471 332.779V328.031H149.953V332.779C149.937 336.332 150.169 340.167 151.846 343.271C153.489 340.184 153.722 336.315 153.738 332.779V328.031H158.221V332.779C158.221 337.594 158.586 342.624 162.105 345.795V325.707H166.986ZM195.475 325.707V337.162H199.559V341.08H195.475V356.088H190.693V325.707H195.475ZM187.24 328.762C187.24 338.025 183.854 345.928 173.494 351.008L170.805 347.355C177.794 343.853 181.546 339.304 182.393 332.68H172.631V328.762H187.24ZM212.773 333.676C212.773 338.523 214.898 343.803 220.211 345.961L217.654 349.713C214.118 348.252 211.777 345.396 210.416 341.91C209.088 345.729 206.681 348.883 203.111 350.477L200.389 346.725C205.668 344.4 207.893 338.822 207.893 333.676V332.48H201.65V328.596H218.883V332.48H212.773V333.676ZM226.287 325.707V356.188H221.473V325.707H226.287ZM254.842 333.742V337.461H233.426V326.803H238.174V333.742H254.842ZM257.896 340.416V344.168H230.039V340.416H257.896ZM255.041 351.705V355.523H233.127V346.459H237.908V351.705H255.041ZM292.328 326.67V330.422H284.525C285.372 332.198 288.078 333.975 293.756 334.473L292.096 338.191C286.136 337.66 282.5 335.552 280.906 332.713C279.329 335.552 275.71 337.66 269.816 338.191L268.156 334.473C273.768 333.958 276.474 332.215 277.32 330.422H269.584V326.67H292.328ZM283.297 336.432V339.818H294.852V343.537H267.061V339.818H278.516V336.432H283.297ZM291.531 345.596V355.855H270.248V345.596H291.531ZM274.93 349.348V352.037H286.883V349.348H274.93ZM101.875 371.135V374.787H92.8438V381.395C97.376 381.361 100.049 381.195 103.137 380.631L103.502 384.316C99.916 385.014 96.6621 385.08 90.5195 385.08H88.0625V371.135H101.875ZM112.234 369.707V385.312H107.486V379.469H100.48V375.982H107.486V369.707H112.234ZM112.234 386.475V394.809H96.6289V396.137H113.031V399.855H91.8145V391.355H107.486V390.16H91.8145V386.475H112.234ZM147.695 369.74V378.871H151.646V382.756H147.695V392.484H142.914V369.74H147.695ZM141.453 372.795V376.514H123.391V372.795H130.031V369.707H134.812V372.795H141.453ZM132.422 377.377C136.871 377.377 139.992 379.801 139.992 383.354C139.992 386.873 136.871 389.23 132.422 389.23C127.973 389.23 124.785 386.873 124.818 383.354C124.785 379.801 127.973 377.377 132.422 377.377ZM132.422 381.029C130.662 381.029 129.467 381.826 129.467 383.354C129.467 384.881 130.662 385.611 132.422 385.645C134.215 385.611 135.443 384.881 135.443 383.354C135.443 381.826 134.215 381.029 132.422 381.029ZM148.691 395.871V399.689H127.707V390.725H132.488V395.871H148.691ZM186.211 369.74V389.828H181.463V381.494H176.482V377.609H181.463V369.74H186.211ZM176.217 372.031C176.217 380.398 172.133 385.811 162.77 388.699L160.711 384.98C167.451 383.021 170.423 379.884 171.037 375.816H162.371V372.031H176.217ZM178.143 388.6C178.109 391.754 180.799 395.273 187.572 396.27L185.68 400.055C180.849 399.324 177.562 397.249 175.752 394.477C173.909 397.232 170.589 399.291 165.791 400.055L163.932 396.303C170.738 395.373 173.395 391.754 173.395 388.6V387.67H178.143V388.6ZM221.672 369.707V375.783H225.623V379.668H221.672V385.611H216.891V369.707H221.672ZM213.371 371.766C213.371 379.934 208.557 384.516 199.193 386.109L197.201 382.357C204.639 381.262 207.561 378.489 207.992 375.518H198.762V371.766H213.371ZM221.738 386.707V390.16H206.133V391.588H221.473V394.941H206.133V396.369H222.402V399.855H201.318V386.707H221.738ZM235.02 371.799C239.701 371.799 243.121 376.016 243.154 382.689C243.121 389.463 239.701 393.68 235.02 393.68C230.271 393.68 226.818 389.463 226.852 382.689C226.818 376.016 230.271 371.799 235.02 371.799ZM235.02 376.115C232.895 376.115 231.467 378.34 231.5 382.689C231.467 387.105 232.895 389.33 235.02 389.33C237.178 389.33 238.539 387.105 238.572 382.689C238.539 378.34 237.178 376.115 235.02 376.115ZM250.957 369.707V380.996H255.273V384.947H250.957V400.188H246.176V369.707H250.957ZM267.957 376.182C267.957 381.992 269.85 387.57 275.129 389.795L272.24 393.613C268.92 392.02 266.795 389.214 265.566 385.678C264.255 389.446 262.03 392.518 258.594 394.178L255.605 390.26C261.051 387.836 263.076 381.959 263.109 376.182V371.965H267.957V376.182ZM282.002 369.707V400.254H277.287V382.889H271.709V379.037H277.287V369.707H282.002ZM116.916 422.805V425.361H128.504V429.146H100.646V425.361H112.135V422.805H116.916ZM125.947 414.404V417.99H118.311C119.273 419.385 121.946 420.696 127.342 420.945L125.848 424.465C119.788 424.1 116.086 422.273 114.559 419.684C113.015 422.273 109.312 424.1 103.27 424.465L101.775 420.945C107.038 420.696 109.744 419.368 110.773 417.99H103.203V414.404H125.947ZM125.881 431.936V435.488H103.137V431.936H112.102V429.91H116.916V431.936H125.881ZM114.492 436.186C120.402 436.186 123.922 437.58 123.922 440.203C123.922 442.859 120.402 444.254 114.492 444.254C108.516 444.254 105.096 442.859 105.096 440.203C105.096 437.58 108.516 436.186 114.492 436.186ZM114.492 439.307C111.504 439.34 110.01 439.506 110.043 440.203C110.01 440.867 111.504 441.133 114.492 441.133C117.547 441.133 118.908 440.867 118.941 440.203C118.908 439.506 117.547 439.34 114.492 439.307ZM157.855 429.146V432.898H130.064V429.146H157.855ZM154.668 439.871V443.689H133.352V434.758H138.133V439.871H154.668ZM143.943 414.604C150.65 414.604 155.1 416.994 155.133 420.879C155.1 424.83 150.65 427.254 143.943 427.287C137.203 427.254 132.754 424.83 132.754 420.879C132.754 416.994 137.203 414.604 143.943 414.604ZM143.943 418.355C139.926 418.389 137.701 419.219 137.734 420.879C137.701 422.639 139.926 423.402 143.943 423.402C147.928 423.402 150.186 422.639 150.186 420.879C150.186 419.219 147.928 418.389 143.943 418.355ZM192.852 413.74V433.828H188.104V425.494H183.123V421.609H188.104V413.74H192.852ZM182.857 416.031C182.857 424.398 178.773 429.811 169.41 432.699L167.352 428.98C174.092 427.021 177.063 423.884 177.678 419.816H169.012V416.031H182.857ZM184.783 432.6C184.75 435.754 187.439 439.273 194.213 440.27L192.32 444.055C187.489 443.324 184.202 441.249 182.393 438.477C180.55 441.232 177.229 443.291 172.432 444.055L170.572 440.303C177.379 439.373 180.035 435.754 180.035 432.6V431.67H184.783V432.6ZM228.312 413.707V419.783H232.264V423.668H228.312V429.611H223.531V413.707H228.312ZM220.012 415.766C220.012 423.934 215.197 428.516 205.834 430.109L203.842 426.357C211.279 425.262 214.201 422.489 214.633 419.518H205.402V415.766H220.012ZM228.379 430.707V434.16H212.773V435.588H228.113V438.941H212.773V440.369H229.043V443.855H207.959V430.707H228.379ZM241.66 415.799C246.342 415.799 249.762 420.016 249.795 426.689C249.762 433.463 246.342 437.68 241.66 437.68C236.912 437.68 233.459 433.463 233.492 426.689C233.459 420.016 236.912 415.799 241.66 415.799ZM241.66 420.115C239.535 420.115 238.107 422.34 238.141 426.689C238.107 431.105 239.535 433.33 241.66 433.33C243.818 433.33 245.18 431.105 245.213 426.689C245.18 422.34 243.818 420.115 241.66 420.115ZM257.598 413.707V424.996H261.914V428.947H257.598V444.188H252.816V413.707H257.598ZM266.961 441.332C265.301 441.332 263.939 440.004 263.973 438.311C263.939 436.684 265.301 435.355 266.961 435.355C268.555 435.355 269.949 436.684 269.982 438.311C269.949 440.004 268.555 441.332 266.961 441.332ZM100.182 457.707V473.146H95.4336V465.676H90.0547V461.924H95.4336V457.707H100.182ZM100.182 474.309V482.742H84.5098V484.137H100.979V487.855H79.8281V479.289H95.4336V477.961H79.7617V474.309H100.182ZM86.1367 460.729C86.1035 464.248 87.8965 467.734 92.877 469.162L90.3867 472.814C87.1826 471.818 85.0078 469.893 83.7129 467.436C82.3682 470.191 80.0439 472.366 76.541 473.445L74.084 469.627C79.2969 468.166 81.2559 464.48 81.2559 460.729V458.736H86.1367V460.729ZM129.566 457.707V488.188H124.818V473.146H119.174V469.262H124.818V457.707H129.566ZM119.34 460.861C119.34 470.225 116.584 477.695 105.793 483.041L103.369 479.322C110.873 475.604 113.895 471.071 114.525 464.58H104.83V460.861H119.34ZM145.238 465.676C145.238 470.523 147.363 475.803 152.676 477.961L150.119 481.713C146.583 480.252 144.242 477.396 142.881 473.91C141.553 477.729 139.146 480.883 135.576 482.477L132.854 478.725C138.133 476.4 140.357 470.822 140.357 465.676V464.48H134.115V460.596H151.348V464.48H145.238V465.676ZM158.752 457.707V488.188H153.938V457.707H158.752ZM178.674 458.504C181.081 458.504 183.173 459.301 184.65 460.662H191.191V457.707H195.939V472.881H191.191V470.49H184.617C183.173 471.852 181.064 472.648 178.674 472.648C173.992 472.648 170.473 469.727 170.506 465.543C170.473 461.426 173.992 458.504 178.674 458.504ZM178.674 462.355C176.516 462.355 175.021 463.484 175.021 465.543C175.021 467.668 176.516 468.797 178.674 468.797C180.732 468.797 182.227 467.668 182.227 465.543C182.227 463.484 180.732 462.355 178.674 462.355ZM195.939 474.076V482.609H180.334V484.137H196.736V487.855H175.52V479.123H191.191V477.729H175.52V474.076H195.939ZM186.676 464.314C186.726 464.713 186.775 465.128 186.775 465.543C186.775 465.958 186.726 466.373 186.676 466.771H191.191V464.314H186.676ZM225.125 457.74V474.906H220.344V457.74H225.125ZM225.125 476.201V487.855H204.539V476.201H225.125ZM209.221 479.953V484.037H220.443V479.953H209.221ZM211.479 461.758C211.445 465.277 213.371 468.73 218.418 470.225L216.127 473.877C212.674 472.897 210.366 470.922 209.021 468.365C207.627 471.154 205.22 473.362 201.617 474.441L199.293 470.689C204.572 469.162 206.498 465.344 206.498 461.758V458.836H211.479V461.758ZM254.51 457.707V488.188H249.695V457.707H254.51ZM247.67 462.189V466.008H229.541V462.189H236.182V458.139H241.029V462.189H247.67ZM238.672 467.402C243.188 467.402 246.574 470.457 246.574 474.74C246.574 479.057 243.188 482.078 238.672 482.078C234.09 482.078 230.703 479.057 230.703 474.74C230.703 470.457 234.09 467.402 238.672 467.402ZM238.672 471.254C236.646 471.287 235.252 472.549 235.285 474.74C235.252 476.998 236.646 478.193 238.672 478.193C240.631 478.193 241.992 476.998 241.992 474.74C241.992 472.549 240.631 471.287 238.672 471.254ZM280.408 462.156V465.941H265.865V462.156H270.846V458.537H275.561V462.156H280.408ZM273.236 467.104C277.154 467.104 279.943 470.125 279.943 474.408C279.943 478.725 277.154 481.779 273.236 481.779C269.318 481.779 266.463 478.725 266.463 474.408C266.463 470.125 269.318 467.104 273.236 467.104ZM273.236 471.055C271.676 471.021 270.646 472.25 270.646 474.408C270.646 476.6 271.676 477.729 273.236 477.729C274.697 477.729 275.76 476.6 275.76 474.408C275.76 472.25 274.697 471.021 273.236 471.055ZM292.361 457.707V488.188H287.812V473.777H285.854V486.926H281.404V458.271H285.854V469.959H287.812V457.707H292.361ZM299.434 485.332C297.773 485.332 296.412 484.004 296.445 482.311C296.412 480.684 297.773 479.355 299.434 479.355C301.027 479.355 302.422 480.684 302.455 482.311C302.422 484.004 301.027 485.332 299.434 485.332ZM82.6172 529V504.961H98.9199V509.576H88.2617V514.656H97.8574V519.271H88.2617V529H82.6172ZM101.477 529V510.971H106.922V514.225H107.088C107.752 511.867 109.346 510.705 111.338 510.705C111.869 510.705 112.467 510.805 112.932 510.904V515.785C112.4 515.619 111.404 515.52 110.707 515.52C108.615 515.52 107.088 516.98 107.088 519.139V529H101.477ZM122.992 529.332C117.348 529.332 113.928 525.58 113.928 520.035C113.928 514.49 117.348 510.738 122.992 510.738C128.637 510.738 132.057 514.49 132.057 520.035C132.057 525.58 128.637 529.332 122.992 529.332ZM123.025 525.115C125.15 525.115 126.346 523.023 126.346 520.002C126.346 516.98 125.15 514.889 123.025 514.889C120.834 514.889 119.639 516.98 119.639 520.002C119.639 523.023 120.834 525.115 123.025 525.115ZM134.945 529V510.971H140.258V514.258H140.457C141.221 512.066 143.08 510.738 145.57 510.738C148.061 510.738 149.986 512.1 150.451 514.258H150.65C151.348 512.133 153.439 510.738 156.096 510.738C159.482 510.738 161.84 513.029 161.84 516.848V529H156.229V518.109C156.229 516.283 155.166 515.287 153.672 515.287C152.045 515.287 151.082 516.449 151.082 518.176V529H145.703V518.043C145.703 516.35 144.674 515.287 143.18 515.287C141.619 515.287 140.557 516.482 140.557 518.309V529H134.945ZM168.514 529.332C166.854 529.332 165.492 528.004 165.525 526.311C165.492 524.684 166.854 523.355 168.514 523.355C170.107 523.355 171.502 524.684 171.535 526.311C171.502 528.004 170.107 529.332 168.514 529.332ZM196.902 503.932C196.902 507.318 199.957 511.369 207.395 512.266L205.535 516.117C200.106 515.37 196.354 512.963 194.379 509.775C192.387 512.963 188.668 515.37 183.289 516.117L181.43 512.266C188.801 511.369 191.855 507.285 191.855 503.932V502.537H196.902V503.932ZM208.258 518.076V521.961H196.637V532.188H191.889V521.961H180.467V518.076H208.258ZM216.094 503.898V508.016H221.672V503.898H226.42V519.438H211.379V503.898H216.094ZM216.094 515.719H221.672V511.668H216.094V515.719ZM235.451 501.74V524.086H230.67V501.74H235.451ZM236.148 527.871V531.689H214.799V521.828H219.58V527.871H236.148ZM265.035 501.74V523.953H260.287V513.461H255.605C254.659 516.897 251.538 519.238 247.77 519.238C243.121 519.238 239.568 515.918 239.602 511.369C239.568 506.787 243.121 503.533 247.77 503.533C251.654 503.533 254.858 505.974 255.672 509.609H260.287V501.74H265.035ZM265.732 527.871V531.689H244.615V521.729H249.396V527.871H265.732ZM247.77 507.717C245.711 507.717 244.117 508.979 244.117 511.369C244.117 513.727 245.711 515.121 247.77 515.088C249.762 515.121 251.322 513.727 251.322 511.369C251.322 508.979 249.762 507.717 247.77 507.717ZM294.387 501.707V532.188H289.639V501.707H294.387ZM274.896 504.596V520.699C278.848 520.616 283.131 520.234 287.381 519.404L287.979 523.355C282.666 524.451 277.553 524.783 272.904 524.75H270.148V504.596H274.896Z" fill="white"/>
</g>
<defs>
<clipPath id="clip0_1267_74">
<rect width="377.87" height="565.44" fill="white" transform="matrix(-1 0 0 1 377.87 0)"/>
</clipPath>
</defs>
</svg>
