<svg width="378" height="566" viewBox="0 0 378 566" fill="none" xmlns="http://www.w3.org/2000/svg">
<g clip-path="url(#clip0_1267_74)">
<path d="M331.78 565.44C357.2 565.44 377.87 544.76 377.87 519.35V402.95C377.87 381.8 363.55 363.93 344.09 358.53V274.09C344.09 248.79 323.6 228.18 298.34 228V198.37C298.34 184.81 292.4 172.16 282.38 163.5C282.62 156.15 281.19 148.57 278.12 141.13C277.78 140.3 277.43 139.51 277.1 138.79C278.12 136.53 279.32 133.63 280.32 130.2C284.78 114.87 285.03 92.52 282.7 79.78L277.54 71.26L276.03 70.08C275.3 62.31 273.39 55.37 270.26 49.03C269.79 48.08 269.32 47.2 268.86 46.38L269.97 38.27L267.88 28.8L257.2 12.18L249.46 6.34L234.53 1.84L224.86 2.43C220.86 4.19 212.16 8.01 204.47 16.08L202.25 16.67C199.46 18.55 196.86 20.84 194.52 23.47C193.45 22.59 192.33 21.72 191.15 20.86L183.18 18.17L169.43 17.89L168.42 18.19L156.61 6.23L148.88 2.25L134.89 -0.00999832L126.3 1.34C118 5.57 110.48 9.98 103.53 19.91L98.9501 21.9L92.6501 27.32L85.4401 38.86L83.3301 46.9C83.5101 51.01 84.4101 58.75 88.2501 67.03C88.3401 67.73 88.4501 68.44 88.5701 69.15L87.8101 70.03L84.4601 78.15C83.3101 93.98 88.6501 110.81 99.2601 125.33C99.0401 126.38 98.8501 127.45 98.7001 128.53L96.1601 131.06L89.6601 144.07L88.4301 152.94C89.4901 158.54 90.7101 163.12 91.9201 166.88C84.0101 175.3 79.5201 186.45 79.5201 198.37V228C54.2601 228.19 33.7701 248.79 33.7701 274.09V358.52C14.3101 363.92 -0.0098877 381.79 -0.0098877 402.94V519.34C-0.0098877 544.76 20.6701 565.43 46.0801 565.43H331.78V565.44Z" fill="#00FF4E"/>
<path d="M331.78 551.44C349.48 551.44 363.87 537.04 363.87 519.35V402.95C363.87 385.25 349.47 370.86 331.78 370.86H330.1V274.1C330.1 256.4 315.7 242.01 298.01 242.01H284.36V198.38C284.36 186.16 277.49 175.51 267.42 170.09C269.31 162.71 268.56 154.6 265.21 146.47C264.48 144.71 263.73 143.14 263.12 141.88C262.74 141.09 262.23 140.04 262.03 139.53C262.02 139.11 262.12 138.1 262.55 137.03C262.76 136.52 263.1 135.78 263.47 135C264.49 132.84 265.87 129.89 266.92 126.3C270.63 113.55 270.98 93.26 268.98 82.31L262.42 77.19C262.37 68.68 260.84 61.48 257.76 55.25C256.56 52.82 255.29 50.89 254.35 49.47L256.14 36.38L245.46 19.76L230.53 15.26C226.61 16.99 218.46 20.57 212.3 28.46L210.1 28.3C205.52 31.38 200.69 37.04 198.12 44.81C198.01 44.77 197.91 44.73 197.8 44.69C196.33 44.15 194.97 43.73 193.73 43.37C191.41 39.62 188.26 36.06 182.94 32.18L169.19 31.9L161.21 37.24L160.08 29.64L146.68 16.08L132.69 13.82C124.59 17.95 118.78 21.43 113 31.08L104.55 34.75L97.3401 46.29C97.4701 49.21 98.1901 56.1 101.93 63.07C102.19 66.62 102.94 69.92 103.87 72.86L98.4301 79.17C97.3901 93.51 103.5 109.54 114.86 122.4C113.35 125.78 112.22 130.04 112.26 135.57L108.69 137.32L102.2 150.33C104.14 160.54 106.6 166.81 108.63 171.14C99.5101 176.85 93.5301 186.99 93.5301 198.37V242H79.8801C62.1801 242 47.7901 256.4 47.7901 274.09V370.85H46.1101C28.4101 370.85 14.0201 385.25 14.0201 402.94V519.34C14.0201 537.04 28.4201 551.43 46.1101 551.43H331.78V551.44ZM180.8 166.26C180.47 164.23 180.07 162.38 179.68 160.72C179.76 160.59 179.85 160.44 179.94 160.29C180.54 160.18 181.56 160.06 183.12 160.06C184.19 160.06 185.4 160.12 186.7 160.23L190.89 157.48C191.1 160.6 191.68 163.53 192.63 166.25H180.8V166.26Z" fill="#00FF4E"/>
<path d="M331.78 539.44C342.86 539.44 351.87 530.43 351.87 519.35V402.95C351.87 391.87 342.86 382.86 331.78 382.86H318.19C318.14 382.86 318.1 382.82 318.1 382.77V274.1C318.1 263.02 309.09 254.01 298.01 254.01H272.45C272.4 254.01 272.36 253.97 272.36 253.92V198.38C272.36 187.3 263.35 178.29 252.27 178.29H249.02C249.3 177.9 249.8 177.32 250.23 176.83C251.84 174.97 254.05 172.43 255.36 168.59C257.13 163.39 256.7 157.33 254.12 151.05C253.53 149.61 252.88 148.28 252.32 147.1C251.5 145.41 250.8 143.95 250.43 142.62C249.66 139.83 250.04 135.96 251.43 132.53C251.76 131.71 252.18 130.82 252.62 129.88C253.56 127.89 254.61 125.64 255.4 122.95C258.5 112.3 258.89 93.85 257.17 84.47L249.74 84.95C250.07 83.18 250.34 81.28 250.39 79.28C250.59 71.71 249.47 65.59 246.99 60.57C246.11 58.78 245.15 57.33 244.3 56.05C243.66 55.08 243.1 54.24 242.78 53.55C241.93 51.71 241.96 48.75 242.85 46.96L243.08 46.47C243.58 45.3 243.75 44.91 246.04 42.88L235.36 26.26C231.25 28.07 223.1 31.65 219.03 40.3L216.79 38.28C212.2 41.37 207.24 48.89 208.4 59.92C208.91 64.79 211.27 68.38 212.83 70.76L213.32 71.51C214.1 72.73 214.38 73.33 214.47 73.61C214.37 73.88 214.17 74.28 213.93 74.72C209.3 65.81 202.13 59.07 193.67 55.98C192.22 55.45 190.82 55.04 189.47 54.65C188.15 54.27 186.24 53.71 185.39 53.26C185.33 53.14 185.28 53.02 185.22 52.9C183.64 49.55 181.74 46.19 175.85 41.89L161.26 51.66C157.96 51.53 153.27 50.67 151.89 49.71C149.9 47.66 148.9 44.83 149.38 42.59C149.7 41.74 150.75 39.58 151.53 38.09L138.13 24.53C130.57 28.38 127.08 30.68 122.88 37.95C122.55 38.52 122.23 39.13 121.9 39.76C121.79 39.97 121.65 40.23 121.52 40.48L109.31 45.78C109.38 47.3 109.89 53.93 113.83 59.6C113.61 66.72 116.5 72.92 119.14 78.09L110.39 80.06C109.54 91.68 114.98 104.99 124.94 115.68L125.51 116.29C126.45 117.29 127.86 118.8 128.09 119.41C128.26 119.94 128.21 121.67 128.18 122.71C128.18 123.04 128.15 123.26 128.13 123.4C128.05 123.52 127.97 123.62 127.9 123.73C125.84 126.67 123.98 130.28 124.29 136.65C124.4 138.84 124.91 140.77 125.55 142.42L113.99 148.1C116.16 159.53 118.92 165 120.94 168.99C122.33 171.73 122.85 172.76 123.03 175.39C123.07 175.99 123.1 176.59 123.13 177.19C123.15 177.59 123.17 178.01 123.2 178.42C113.26 179.62 105.53 188.11 105.53 198.37V253.91C105.53 253.96 105.49 254 105.44 254H79.8801C68.8001 254 59.7901 263.01 59.7901 274.09V382.76C59.7901 382.81 59.7501 382.85 59.7001 382.85H46.1101C35.0301 382.85 26.0201 391.86 26.0201 402.94V519.34C26.0201 530.42 35.0301 539.43 46.1101 539.43H331.78V539.44ZM169.12 178.26C169.23 177.58 169.31 176.89 169.37 176.2C169.78 171.03 168.7 166.44 167.76 162.39C167.54 161.44 167.31 160.48 167.12 159.53C167.14 158.83 167.72 157.16 170.25 153.19C171.47 151.27 173.52 148.07 183.14 148.07C184.58 148.07 186.14 148.15 187.78 148.29L190.02 141.55C200.66 140.84 209.33 135.14 214.75 125.45C215.45 128.36 215.03 132.35 214.46 136.25C214.44 136.38 214.42 136.51 214.4 136.64L207.21 135.31C201.54 149.72 201.35 160.45 206.63 167.19C207.73 168.6 208.54 169.91 209.1 171.18C209.6 172.34 209.68 175.02 209.75 177.38C209.75 177.67 209.77 177.96 209.78 178.26H169.14H169.12Z" fill="#00FF4E"/>
<path d="M46.1001 392.85H59.6901C65.2701 392.85 69.7801 388.33 69.7801 382.76V274.09C69.7801 268.51 74.3001 264 79.8701 264H105.43C111.01 264 115.52 259.48 115.52 253.91V198.37C115.52 192.79 120.04 188.28 125.61 188.28H136.19C135.14 186.94 134.4 185.33 133.96 183.69C133.19 180.78 133.19 177.72 132.99 174.71C132.3 164.66 127.35 164.93 123.8 146.24C128.46 151.49 130.5 151.3 132.33 151.13C132.98 151.07 136.82 150.36 137.78 147.03C138.71 143.82 134.48 140.53 134.26 136.15C133.89 128.69 137.95 130.45 138.16 122.99C138.22 120.7 138.28 118.35 137.54 116.18C136.56 113.31 134.31 111.09 132.24 108.87C125.46 101.59 119.62 90.71 120.34 80.79C123.84 86.96 125.51 88.58 129.01 88.01C130.88 87.71 132.07 85.7 132.1 83.81C132.13 81.92 131.3 80.14 130.49 78.43C127.45 72.07 122.99 65.46 123.91 58.47C124.02 57.61 124.37 56.36 123.62 55.71C119.57 52.2 119.27 45.34 119.27 45.34C127.36 53.6 129.27 46.83 131.5 42.95C134.43 37.87 136.09 36.77 142.63 33.44C142.63 33.44 140.12 38.23 139.68 39.97C138.17 45.99 140.47 52.45 144.85 56.85C149.23 61.25 160.25 61.67 162.02 61.67C168.17 61.67 172.37 59.97 169.92 49.96C174.96 53.64 175.33 55.62 176.68 58.27C179.05 62.94 185.28 63.56 190.2 65.36C199.19 68.64 205.28 77.39 207.89 86.6C210.46 95.67 210.66 108.36 208.43 114.99C205.42 123.93 196.72 139.61 169.42 126.82C170.48 126.49 183.77 130.87 186.99 121.73C188.02 118.83 187.71 115.12 186.38 113C185.34 111.33 183.33 109.87 182.05 109.21C175.16 105.68 167.46 108.46 163.51 113.66C161.01 116.96 159.78 120.07 159.54 123.1C159.27 126.47 160.36 130.39 164.74 132.49C168.56 134.32 175.66 130.34 188.64 138.34C172.27 136.88 165.65 141.77 161.79 147.83C159.25 151.82 156.33 156.82 157.28 161.45C158.23 166.08 159.75 170.71 159.38 175.43C158.98 180.5 156.16 185.25 152.1 188.27H221.99C221.92 188.17 221.85 188.08 221.78 187.97C218.33 182.35 220.96 173.49 218.25 167.22C217.26 164.92 215.93 162.88 214.48 161.03C210.39 155.81 214.81 143.27 216.5 138.99C216.59 148.94 219.09 149.99 221.11 147.5C223.13 145.01 223.82 141.26 224.34 137.71C225.09 132.53 225.65 127.03 224.18 122.11C223.32 119.22 221.8 116.74 220.75 113.96C218.79 108.78 218.51 102.83 218.4 97.07C218.32 92.88 218.34 88.49 219.85 84.79C221.39 81.01 224.45 77.95 224.49 73.67C224.51 70.82 223.13 68.29 221.72 66.1C220.31 63.91 218.62 61.68 218.33 58.87C217.39 49.91 222.36 46.57 222.36 46.57C222.36 46.57 219.46 52.06 223.94 52.56C226.08 52.8 226.61 48.63 227.46 46.08C229.43 40.14 234.66 37.47 239.38 35.4C236.11 38.31 235.05 39.82 233.89 42.49C231.65 46.99 231.57 53.16 233.7 57.75C234.92 60.37 236.74 62.43 238.02 65C240.04 69.09 240.51 74.16 240.38 79.02C240.25 83.88 238.13 88.84 238.12 93.7C238.12 95.57 238.12 97.93 239.52 98.61C242.06 99.84 243.85 98.22 244.62 96.65C245.39 95.08 247.23 88.12 247.32 86.27C248.79 94.29 248.4 111.14 245.78 120.16C244.89 123.23 243.32 125.88 242.15 128.78C240.11 133.82 239.3 139.93 240.78 145.29C241.73 148.73 243.54 151.64 244.87 154.86C246.2 158.08 247.04 162.02 245.9 165.36C244.66 168.98 241.5 170.84 239.86 174.18C238.11 177.77 238.41 182.35 238.59 186.59C238.61 187.15 238.63 187.73 238.57 188.29H252.27C257.85 188.29 262.36 192.81 262.36 198.38V253.92C262.36 259.49 266.88 264.01 272.45 264.01H298.01C303.59 264.01 308.1 268.53 308.1 274.1V382.77C308.1 388.35 312.62 392.86 318.19 392.86H331.78C337.36 392.86 341.87 397.38 341.87 402.95V519.35C341.87 524.92 337.35 529.44 331.78 529.44H46.1001C40.5201 529.44 36.0101 524.92 36.0101 519.35V402.95C36.0101 397.37 40.5301 392.86 46.1001 392.86V392.85Z" fill="#00FF4E"/>
<path d="M130.604 41.5762V36.9609H150.825V41.5762H143.521V61H137.909V41.5762H130.604ZM159.358 61.332C153.714 61.332 150.294 57.5801 150.294 52.0352C150.294 46.4902 153.714 42.7383 159.358 42.7383C165.003 42.7383 168.423 46.4902 168.423 52.0352C168.423 57.5801 165.003 61.332 159.358 61.332ZM159.392 57.1152C161.517 57.1152 162.712 55.0234 162.712 52.002C162.712 48.9805 161.517 46.8887 159.392 46.8887C157.2 46.8887 156.005 48.9805 156.005 52.002C156.005 55.0234 157.2 57.1152 159.392 57.1152ZM174.466 61.332C172.806 61.332 171.444 60.0039 171.478 58.3105C171.444 56.6836 172.806 55.3555 174.466 55.3555C176.06 55.3555 177.454 56.6836 177.487 58.3105C177.454 60.0039 176.06 61.332 174.466 61.332ZM198.505 41.6758C198.505 46.5234 200.63 51.8027 205.942 53.9609L203.386 57.7129C199.85 56.252 197.509 53.3965 196.147 49.9102C194.819 53.7285 192.412 56.8828 188.843 58.4766L186.12 54.7246C191.399 52.4004 193.624 46.8223 193.624 41.6758V40.4805H187.382V36.5957H204.614V40.4805H198.505V41.6758ZM212.019 33.707V64.1875H207.204V33.707H212.019ZM241.835 33.7402V56.7168H237.021V54.5254H231.343V51.3047H237.021V33.7402H241.835ZM242.466 59.8711V63.6895H219.423V54.5254H223.606V50.6738C220.983 50.7734 218.477 50.8066 216.235 50.8066L215.704 47.0547C221.282 46.9883 228.753 46.9219 235.161 46.125L235.427 49.5117C233.136 49.9102 230.762 50.1924 228.421 50.375V56.0859H224.204V59.8711H242.466ZM225.565 34.7031C230.015 34.7031 233.202 36.9941 233.202 40.2148C233.202 43.502 230.015 45.627 225.565 45.627C221.05 45.627 217.896 43.502 217.896 40.2148C217.896 36.9941 221.05 34.7031 225.565 34.7031ZM225.565 38.1895C223.673 38.1895 222.411 38.8535 222.411 40.2148C222.411 41.543 223.673 42.207 225.565 42.207C227.358 42.207 228.653 41.543 228.687 40.2148C228.653 38.8535 227.358 38.1895 225.565 38.1895ZM117.938 80.9609V105H112.26V86.2734H112.127L106.715 89.5938V84.6797L112.658 80.9609H117.938ZM132.281 80.6289C137.527 80.6289 142.275 83.75 142.275 92.4492C142.309 100.518 138.291 105.332 132.148 105.332C127.068 105.332 123.648 102.145 123.184 98.0273H128.795C129.127 99.6543 130.422 100.484 132.148 100.484C135.17 100.484 136.664 97.7285 136.697 93.2793H136.531C135.469 95.4375 133.078 96.6992 130.355 96.6992C126.039 96.6992 122.951 93.4785 122.951 89.0625C122.918 84.082 126.703 80.6289 132.281 80.6289ZM132.314 84.9785C130.057 84.9785 128.43 86.7051 128.43 88.8633C128.463 91.0547 130.023 92.748 132.281 92.748C134.473 92.748 136.166 90.9883 136.166 88.8633C136.133 86.7383 134.506 84.9785 132.314 84.9785ZM170.266 77.7402V100.186H165.518V89.4609H160.404V95.5039H145.695V79.7324H150.51V84.1484H155.689V79.7324H160.404V85.6426H165.518V77.7402H170.266ZM170.896 103.871V107.689H149.812V97.9277H154.66V103.871H170.896ZM150.51 91.7852H155.689V87.7676H150.51V91.7852ZM200.979 77.707V108.188H196.496V93.2129H194.936V106.826H190.52V99.0234L188.494 101.514C187 100.252 186.021 98.4922 185.406 96.4336C184.742 98.6084 183.713 100.518 182.053 101.879C180.376 100.551 179.33 98.6416 178.666 96.5C178.068 98.5088 177.122 100.269 175.645 101.514L172.988 98.3594C176.441 95.4043 176.574 90.457 176.574 86.0078V84.7793H174.084V80.9941H181.754V84.7793H180.625V86.0078C180.625 89.0625 180.691 92.582 182.053 95.5039C183.397 92.5654 183.431 89.0625 183.447 86.0078V84.7793H182.385V80.9941H189.523V84.7793H187.531V86.0078C187.498 90.2246 187.647 94.8398 190.52 97.8281V78.1055H194.936V89.3613H196.496V77.707H200.979ZM220.801 82.9531C220.768 86.1406 222.229 89.2451 226.08 90.8555V78.2715H230.496V84.9453H232.555V77.7402H237.104V96.334H232.555V88.7969H230.496V95.3711H226.08V91.3535L223.822 94.6406C221.332 93.6777 219.622 92.001 218.543 89.8926C217.447 92.416 215.604 94.5078 212.832 95.6367L210.275 91.9512C214.625 90.0254 216.119 86.3398 216.119 82.9531V79.5664H220.801V82.9531ZM226.578 96.6328C233.053 96.6328 237.236 98.8242 237.27 102.41C237.236 105.996 233.053 108.221 226.578 108.188C220.104 108.221 215.92 105.996 215.953 102.41C215.92 98.8242 220.104 96.6328 226.578 96.6328ZM226.578 100.219C222.826 100.186 220.701 100.916 220.734 102.41C220.701 103.904 222.826 104.602 226.578 104.602C230.33 104.602 232.422 103.904 232.455 102.41C232.422 100.916 230.33 100.186 226.578 100.219ZM248.891 78.5371C253.572 78.5371 257.092 81.4922 257.125 85.5762C257.092 89.627 253.572 92.5488 248.891 92.582C244.176 92.5488 240.59 89.627 240.623 85.5762C240.59 81.4922 244.176 78.5371 248.891 78.5371ZM248.891 82.4219C246.799 82.4551 245.238 83.5176 245.238 85.5762C245.238 87.6016 246.766 88.7305 248.891 88.7305C250.982 88.7305 252.477 87.6016 252.477 85.5762C252.477 83.5176 250.982 82.4551 248.891 82.4219ZM265.824 77.707V92.8809H261.043V77.707H265.824ZM265.824 94.043V102.609H249.92V104.137H266.555V107.855H245.271V99.1562H261.043V97.6953H245.172V94.043H265.824ZM163.459 136.582V140.367H151.904V142.725H160.105V152.154H155.324V146.51H138.756V142.725H147.123V140.367H135.668V136.582H163.459ZM151.904 121.807V124.43H160.803V128.115H152.336C152.884 129.958 155.59 131.768 162.363 132.166L160.869 135.719C155.158 135.354 151.406 133.81 149.514 131.502C147.588 133.81 143.836 135.354 138.125 135.719L136.697 132.166C143.421 131.768 146.11 129.958 146.691 128.115H138.258V124.43H147.123V121.807H151.904ZM189.225 121.707V133.428H193.541V137.379H189.225V152.188H184.51V121.707H189.225ZM182.717 126.156V129.941H164.887V126.156H171.494V122.205H176.275V126.156H182.717ZM173.885 131.402C178.334 131.402 181.721 134.457 181.754 138.74C181.721 143.057 178.334 146.078 173.885 146.078C169.303 146.078 165.949 143.057 165.982 138.74C165.949 134.457 169.303 131.402 173.885 131.402ZM173.885 135.254C171.926 135.287 170.531 136.549 170.564 138.74C170.531 140.998 171.926 142.193 173.885 142.193C175.777 142.193 177.139 140.998 177.172 138.74C177.139 136.549 175.777 135.287 173.885 135.254ZM208.947 126.156V129.941H194.404V126.156H199.385V122.537H204.1V126.156H208.947ZM201.775 131.104C205.693 131.104 208.482 134.125 208.482 138.408C208.482 142.725 205.693 145.779 201.775 145.779C197.857 145.779 195.002 142.725 195.002 138.408C195.002 134.125 197.857 131.104 201.775 131.104ZM201.775 135.055C200.215 135.021 199.186 136.25 199.186 138.408C199.186 140.6 200.215 141.729 201.775 141.729C203.236 141.729 204.299 140.6 204.299 138.408C204.299 136.25 203.236 135.021 201.775 135.055ZM220.9 121.707V152.188H216.352V137.777H214.393V150.926H209.943V122.271H214.393V133.959H216.352V121.707H220.9ZM227.973 149.332C226.312 149.332 224.951 148.004 224.984 146.311C224.951 144.684 226.312 143.355 227.973 143.355C229.566 143.355 230.961 144.684 230.994 146.311C230.961 148.004 229.566 149.332 227.973 149.332ZM164.82 179.652V183.438H143.105V168.164H164.621V172.016H147.82V179.652H164.82ZM167.775 188.684V192.635H139.918V188.684H167.775ZM194.902 165.707V196.254H190.088V165.707H194.902ZM186.004 168.33V172.182H175.877V185.064C181.156 185.048 184.36 184.915 187.963 184.268L188.395 188.152C184.377 188.982 180.525 189.082 173.785 189.082H171.129V168.33H186.004ZM207.154 167.799C211.255 167.799 214.359 171.119 214.99 176.531H219.805V165.707H224.52V196.254H219.805V180.316H215.057C214.559 186.127 211.388 189.68 207.154 189.68C202.473 189.68 199.119 185.463 199.152 178.689C199.119 172.016 202.473 167.799 207.154 167.799ZM207.154 172.115C205.129 172.115 203.701 174.34 203.734 178.689C203.701 183.105 205.129 185.33 207.154 185.33C209.246 185.33 210.574 183.105 210.574 178.689C210.574 174.34 209.246 172.115 207.154 172.115ZM114.136 212.961V237H108.458V218.273H108.325L102.913 221.594V216.68L108.856 212.961H114.136ZM128.479 212.629C133.726 212.629 138.474 215.75 138.474 224.449C138.507 232.518 134.489 237.332 128.347 237.332C123.267 237.332 119.847 234.145 119.382 230.027H124.993C125.325 231.654 126.62 232.484 128.347 232.484C131.368 232.484 132.862 229.729 132.896 225.279H132.729C131.667 227.438 129.276 228.699 126.554 228.699C122.237 228.699 119.149 225.479 119.149 221.062C119.116 216.082 122.901 212.629 128.479 212.629ZM128.513 216.979C126.255 216.979 124.628 218.705 124.628 220.863C124.661 223.055 126.222 224.748 128.479 224.748C130.671 224.748 132.364 222.988 132.364 220.863C132.331 218.738 130.704 216.979 128.513 216.979ZM165.335 211.035V213.525C165.335 215.883 165.335 218.473 164.671 221.859H168.522V225.678H140.665V221.859H159.823C160.421 219.07 160.537 216.846 160.554 214.82H144.019V211.035H165.335ZM165.136 228.633V239.855H143.919V228.633H165.136ZM148.601 232.352V236.037H160.388V232.352H148.601ZM202.556 222.623V226.441H193.956V233.049H205.511V236.867H177.653V233.049H189.175V226.441H180.675V211.965H185.556V222.623H202.556ZM219.456 212.562V224.615H212.417V229.629C215.106 229.596 217.68 229.496 220.552 229.031L220.884 232.85C216.999 233.48 213.745 233.613 209.993 233.613H207.835V220.863H214.841V216.414H207.802V212.562H219.456ZM233.468 209.707V240.188H228.952V224.881H226.495V238.727H222.146V210.172H226.495V221.062H228.952V209.707H233.468ZM264.247 223.221V226.707H236.39V223.221H264.247ZM260.96 227.936V235.373H244.292V236.734H261.823V239.955H239.544V232.385H256.212V231.189H239.511V227.936H260.96ZM260.96 210.172V217.576H244.558V218.871H261.458V222.059H239.81V214.588H256.146V213.359H239.776V210.172H260.96ZM100.24 265.328V269.047H72.3828V265.328H100.24ZM96.9199 260.182V263.9H75.7695V254.205H96.7207V257.99H80.5508V260.182H96.9199ZM96.8535 270.541V278.775H80.252V280.27H97.584V283.955H75.5371V275.422H92.1055V274.127H75.5371V270.541H96.8535ZM115.646 254.105C122.752 254.139 126.803 255.965 126.836 259.285C126.803 262.672 122.752 264.498 115.646 264.498C108.541 264.498 104.457 262.672 104.457 259.285C104.457 255.965 108.541 254.139 115.646 254.105ZM115.646 257.592C111.363 257.592 109.471 258.156 109.471 259.285C109.471 260.58 111.363 260.979 115.646 261.012C119.996 260.979 121.889 260.58 121.889 259.285C121.889 258.156 119.996 257.592 115.646 257.592ZM129.559 265.727V269.512H101.768V265.727H129.559ZM126.238 270.973V279.041H109.637V280.436H126.969V284.021H104.922V275.721H121.49V274.426H104.922V270.973H126.238ZM155.191 255.932C155.191 259.318 158.246 263.369 165.684 264.266L163.824 268.117C158.396 267.37 154.644 264.963 152.668 261.775C150.676 264.963 146.957 267.37 141.578 268.117L139.719 264.266C147.09 263.369 150.145 259.285 150.145 255.932V254.537H155.191V255.932ZM166.547 270.076V273.961H154.926V284.188H150.178V273.961H138.756V270.076H166.547ZM179.463 272.965C179.463 275.339 180.376 277.779 182.717 279.439C185.074 277.696 186.037 275.206 186.07 272.965V272.135H190.785V272.965C190.752 276.186 192.246 279.041 196.33 280.27L194.039 283.723C191.167 282.793 189.324 281.017 188.262 278.709C187.249 281.017 185.506 282.959 182.816 283.988C179.994 282.992 178.234 281.1 177.238 278.809C176.143 281.017 174.333 282.776 171.594 283.723L169.236 280.27C173.287 278.908 174.781 275.953 174.814 272.965V272.135H179.463V272.965ZM193.74 253.74V270.906H188.959V253.74H193.74ZM176.973 255.201C181.754 255.234 185.406 258.289 185.406 262.605C185.406 266.855 181.754 269.943 176.973 269.943C172.191 269.943 168.506 266.855 168.539 262.605C168.506 258.289 172.191 255.234 176.973 255.201ZM176.973 259.219C174.748 259.219 173.188 260.414 173.188 262.605C173.188 264.73 174.748 265.992 176.973 265.992C179.131 265.992 180.658 264.73 180.658 262.605C180.658 260.414 179.131 259.219 176.973 259.219ZM224.021 253.707V284.188H219.539V253.707H224.021ZM217.514 254.371V282.893H213.064V269.014H208.582C206.855 272.467 204.066 275.438 199.717 277.912L197.027 274.559C203.037 271.022 205.561 266.905 206.158 261.078H198.82V257.26H210.873C210.873 260.115 210.607 262.771 209.977 265.229H213.064V254.371H217.514ZM234.414 268.217C236.008 268.217 238.05 268.2 240.225 268.15V265.859H236.074V255.4H248.691V259.219H240.689V262.107H248.791V265.859H244.707V267.951C246.317 267.868 247.861 267.735 249.256 267.553L249.488 270.873C244.807 271.736 238.697 271.869 234.879 271.869L234.414 268.217ZM261.275 253.707V272.268H256.693V265.229H254.9V272.168H250.418V254.271H254.9V261.443H256.693V253.707H261.275ZM245.902 274.061C245.902 276.119 246.865 278.327 249.189 279.805C251.497 278.261 252.443 276.003 252.443 274.061V273.33H257.158V274.061C257.158 276.883 258.752 279.439 262.803 280.402L260.611 283.889C257.706 283.059 255.78 281.415 254.701 279.273C253.688 281.415 251.929 283.241 249.189 284.188C246.417 283.274 244.641 281.498 243.645 279.34C242.532 281.432 240.673 283.075 237.9 283.889L235.576 280.402C239.693 279.34 241.32 276.717 241.32 274.061V273.33H245.902V274.061ZM269.775 256.496V272.932C272.398 272.882 274.772 272.683 277.412 272.102L278.043 276.086C274.391 276.916 271.137 277.049 267.152 277.016H264.961V256.496H269.775ZM290.395 253.707V284.188H285.912V253.707H290.395ZM283.854 254.238V282.893H279.371V266.988H273.561V263.17H279.371V254.238H283.854ZM297.434 281.332C295.773 281.332 294.412 280.004 294.445 278.311C294.412 276.684 295.773 275.355 297.434 275.355C299.027 275.355 300.422 276.684 300.455 278.311C300.422 280.004 299.027 281.332 297.434 281.332ZM84.2197 299.766C88.3037 299.766 90.9932 303.982 90.9932 310.922C90.9932 317.895 88.3037 322.145 84.2197 322.145C80.2021 322.145 77.5791 317.895 77.5791 310.922C77.5791 303.982 80.2021 299.766 84.2197 299.766ZM84.2197 304.281C82.7588 304.281 81.9287 306.34 81.9619 310.922C81.9287 315.537 82.7588 317.562 84.2197 317.562C85.7471 317.562 86.6104 315.537 86.6104 310.922C86.6104 306.34 85.7471 304.281 84.2197 304.281ZM103.843 297.707V328.188H99.2607V313.08H97.0029V326.826H92.4873V298.105H97.0029V309.195H99.2607V297.707H103.843ZM132.065 298.504V302.057H128.347V305.443H131.833V308.996H109.354V305.443H112.841V302.057H109.122V298.504H132.065ZM134.522 310.291V314.01H106.731V310.291H134.522ZM131.202 315.438V323.24H114.601V324.535H131.933V328.021H109.886V320.02H126.454V318.824H109.886V315.438H131.202ZM117.622 305.443H123.532V302.057H117.622V305.443ZM163.94 314.508V318.293H157.897V328.221H153.116V318.293H147.14V328.221H142.325V318.293H136.083V314.508H163.94ZM160.72 299.102V311.52H139.271V299.102H160.72ZM143.952 302.887V307.701H155.938V302.887H143.952ZM191.101 297.707V316.035H186.319V297.707H191.101ZM191.101 317.297V328.188H186.319V321.082H170.05V317.297H191.101ZM183.497 299.367V303.186H177.687C177.869 306.489 179.878 309.942 184.759 311.42L182.302 315.105C178.965 314.093 176.674 312.001 175.329 309.395C173.918 312.233 171.527 314.508 167.991 315.637L165.534 311.951C170.498 310.374 172.606 306.705 172.806 303.186H166.796V299.367H183.497ZM230.347 313.113V316.865H202.489V313.113H214.011V310.424H205.81V299.168H227.06V302.953H210.591V306.639H227.358V310.424H218.792V313.113H230.347ZM227.458 323.871V327.689H205.776V318.725H210.458V323.871H227.458ZM265.907 297.707V328.188H261.392V297.707H265.907ZM259.632 298.139V326.826H255.183V311.818H251.53V308H255.183V298.139H259.632ZM249.339 305.709C249.339 310.723 250.667 315.77 255.183 318.359L252.427 321.846C249.787 320.335 248.094 317.812 247.081 314.74C246.052 318.077 244.309 320.899 241.636 322.543L238.78 319.023C243.329 316.201 244.724 310.756 244.724 305.709V304.48H240.009V300.662H253.655V304.48H249.339V305.709ZM289.349 298.139V309.361H291.208V297.707H295.724V328.188H291.208V313.213H289.349V326.859H284.966V298.139H289.349ZM275.735 301.293V305.111H273.577V316.932C274.225 316.865 274.922 316.749 275.669 316.566L276.001 320.484C273.876 320.916 272.349 320.982 270.688 320.982H269.228V301.293H275.735ZM283.538 301.293V305.111H281.114V316.965C281.928 316.915 282.808 316.799 283.804 316.566L284.069 320.518C281.845 320.949 280.185 320.982 278.259 320.982H276.864V301.293H283.538ZM86.1787 364.883V368.768H58.3213V364.883H69.8428V359.537H61.1768V343.6H65.958V348.082H78.4092V343.6H83.1904V359.537H74.5576V364.883H86.1787ZM65.958 355.752H78.4092V351.834H65.958V355.752ZM114.036 341.707V372.188H109.487V357.113H107.097V370.727H102.647V342.172H107.097V353.295H109.487V341.707H114.036ZM93.6162 344.994V360.699C95.8906 360.633 98.3975 360.417 101.087 359.902L101.552 364.02C97.5342 364.717 94.0479 364.916 90.96 364.883H88.835V344.994H93.6162ZM142.392 344.197V347.053C142.392 350.871 142.392 355.221 141.163 361.795L136.315 361.297C137.478 355.719 137.561 351.485 137.61 347.982H119.946V344.197H142.392ZM144.882 364.783V368.635H117.091V364.783H126.753V354.424H131.501V364.783H144.882ZM153.349 366.477L150.394 376.072H146.509L148.103 366.477H153.349ZM176.458 360.6C183.132 360.6 187.349 362.725 187.382 366.41C187.349 370.029 183.132 372.221 176.458 372.188C169.817 372.221 165.534 370.029 165.534 366.41C165.534 362.725 169.817 360.6 176.458 360.6ZM176.458 364.152C172.474 364.119 170.282 364.883 170.315 366.41C170.282 367.904 172.474 368.568 176.458 368.602C180.409 368.568 182.634 367.904 182.634 366.41C182.634 364.883 180.409 364.119 176.458 364.152ZM187.249 343.035V345.492C187.249 347.883 187.249 350.539 186.386 353.66L181.671 353.229C182.318 350.639 182.435 348.696 182.468 346.754H165.899V343.035H187.249ZM190.47 355.121V358.973H162.845V355.121H172.839V349.941H177.554V355.121H190.47ZM219.954 359.105V362.857H208.3V372.188H203.552V362.857H192.097V359.105H219.954ZM199.966 342.869V346.156H211.952V342.869H216.733V356.416H195.251V342.869H199.966ZM199.966 352.598H211.952V349.875H199.966V352.598ZM237.651 342.504C240.059 342.504 242.15 343.301 243.628 344.662H250.169V341.707H254.917V356.881H250.169V354.49H243.595C242.15 355.852 240.042 356.648 237.651 356.648C232.97 356.648 229.45 353.727 229.483 349.543C229.45 345.426 232.97 342.504 237.651 342.504ZM237.651 346.355C235.493 346.355 233.999 347.484 233.999 349.543C233.999 351.668 235.493 352.797 237.651 352.797C239.71 352.797 241.204 351.668 241.204 349.543C241.204 347.484 239.71 346.355 237.651 346.355ZM254.917 358.076V366.609H239.312V368.137H255.714V371.855H234.497V363.123H250.169V361.729H234.497V358.076H254.917ZM245.653 348.314C245.703 348.713 245.753 349.128 245.753 349.543C245.753 349.958 245.703 350.373 245.653 350.771H250.169V348.314H245.653ZM284.103 341.74V358.906H279.321V341.74H284.103ZM284.103 360.201V371.855H263.517V360.201H284.103ZM268.198 363.953V368.037H279.421V363.953H268.198ZM270.456 345.758C270.423 349.277 272.349 352.73 277.396 354.225L275.104 357.877C271.651 356.897 269.344 354.922 267.999 352.365C266.604 355.154 264.197 357.362 260.595 358.441L258.271 354.689C263.55 353.162 265.476 349.344 265.476 345.758V342.836H270.456V345.758ZM313.487 341.707V372.188H308.673V341.707H313.487ZM306.647 346.189V350.008H288.519V346.189H295.159V342.139H300.007V346.189H306.647ZM297.649 351.402C302.165 351.402 305.552 354.457 305.552 358.74C305.552 363.057 302.165 366.078 297.649 366.078C293.067 366.078 289.681 363.057 289.681 358.74C289.681 354.457 293.067 351.402 297.649 351.402ZM297.649 355.254C295.624 355.287 294.229 356.549 294.263 358.74C294.229 360.998 295.624 362.193 297.649 362.193C299.608 362.193 300.97 360.998 300.97 358.74C300.97 356.549 299.608 355.287 297.649 355.254ZM60.2803 385.707V397.428H64.5967V401.379H60.2803V416.188H55.5654V385.707H60.2803ZM53.7725 390.156V393.941H35.9424V390.156H42.5498V386.205H47.3311V390.156H53.7725ZM44.9404 395.402C49.3896 395.402 52.7764 398.457 52.8096 402.74C52.7764 407.057 49.3896 410.078 44.9404 410.078C40.3584 410.078 37.0049 407.057 37.0381 402.74C37.0049 398.457 40.3584 395.402 44.9404 395.402ZM44.9404 399.254C42.9814 399.287 41.5869 400.549 41.6201 402.74C41.5869 404.998 42.9814 406.193 44.9404 406.193C46.833 406.193 48.1943 404.998 48.2275 402.74C48.1943 400.549 46.833 399.287 44.9404 399.254ZM91.292 404.832V415.822H70.54V404.832H91.292ZM75.2881 408.551V412.104H86.5439V408.551H75.2881ZM91.292 385.74V403.637H86.5439V399.553H81.8291V395.734H86.5439V393.244H81.8291V389.459H86.5439V385.74H91.292ZM80.1689 387.035V396.697H71.3701V399.154C75.8193 399.121 78.2764 399.021 81.1318 398.59L81.4971 402.309C78.1104 402.939 75.1221 402.973 68.9795 402.939H66.6553V393.145H75.3877V390.82H66.6221V387.035H80.1689ZM99.0283 413.332C97.3682 413.332 96.0068 412.004 96.04 410.311C96.0068 408.684 97.3682 407.355 99.0283 407.355C100.622 407.355 102.017 408.684 102.05 410.311C102.017 412.004 100.622 413.332 99.0283 413.332ZM138.839 408.85V412.734H110.981V408.85H116.991V401.611C114.717 400.167 113.339 398.009 113.339 395.336C113.339 390.355 118.22 387.068 124.86 387.068C131.501 387.068 136.448 390.355 136.448 395.336C136.448 397.959 135.104 400.084 132.896 401.512V408.85H138.839ZM124.86 390.82C120.71 390.787 118.054 392.414 118.087 395.336C118.054 398.225 120.71 399.918 124.86 399.918C128.978 399.918 131.7 398.225 131.7 395.336C131.7 392.414 128.978 390.787 124.86 390.82ZM121.706 408.85H128.048V403.338C127.035 403.521 125.973 403.604 124.86 403.604C123.748 403.604 122.702 403.521 121.706 403.338V408.85ZM165.634 386.902V390.654H157.798C158.578 392.464 161.268 394.307 167.095 394.771L165.435 398.523C159.475 397.992 155.822 395.884 154.212 393.045C152.635 395.884 149.016 397.992 143.056 398.523L141.462 394.771C147.156 394.307 149.862 392.464 150.659 390.654H142.89V386.902H165.634ZM164.837 405.131V415.855H143.554V405.131H164.837ZM148.235 408.883V412.037H160.188V408.883H148.235ZM168.157 399.42V403.172H140.366V399.42H168.157ZM202.423 385.707V396.963H205.577V400.914H202.423V416.188H197.542V406.857L195.118 409.646C193.226 408.169 192.08 406.011 191.366 403.471C190.586 406.11 189.324 408.368 187.249 409.879C185.24 408.401 183.979 406.177 183.231 403.604C182.518 405.994 181.422 408.036 179.679 409.447L176.491 406.26C180.476 403.039 180.907 397.826 180.907 392.779V388.031H185.39V392.779C185.373 396.332 185.605 400.167 187.282 403.271C188.926 400.184 189.158 396.315 189.175 392.779V388.031H193.657V392.779C193.657 397.594 194.022 402.624 197.542 405.795V385.707H202.423ZM230.911 385.707V397.162H234.995V401.08H230.911V416.088H226.13V385.707H230.911ZM222.677 388.762C222.677 398.025 219.29 405.928 208.931 411.008L206.241 407.355C213.23 403.853 216.982 399.304 217.829 392.68H208.067V388.762H222.677ZM248.21 393.676C248.21 398.523 250.335 403.803 255.647 405.961L253.091 409.713C249.555 408.252 247.214 405.396 245.853 401.91C244.524 405.729 242.117 408.883 238.548 410.477L235.825 406.725C241.104 404.4 243.329 398.822 243.329 393.676V392.48H237.087V388.596H254.319V392.48H248.21V393.676ZM261.724 385.707V416.188H256.909V385.707H261.724ZM290.278 393.742V397.461H268.862V386.803H273.61V393.742H290.278ZM293.333 400.416V404.168H265.476V400.416H293.333ZM290.478 411.705V415.523H268.563V406.459H273.345V411.705H290.478ZM327.765 386.67V390.422H319.962C320.809 392.198 323.515 393.975 329.192 394.473L327.532 398.191C321.572 397.66 317.937 395.552 316.343 392.713C314.766 395.552 311.146 397.66 305.253 398.191L303.593 394.473C309.204 393.958 311.91 392.215 312.757 390.422H305.021V386.67H327.765ZM318.733 396.432V399.818H330.288V403.537H302.497V399.818H313.952V396.432H318.733ZM326.968 405.596V415.855H305.685V405.596H326.968ZM310.366 409.348V412.037H322.319V409.348H310.366ZM51.9961 431.135V434.787H42.9648V441.395C47.4971 441.361 50.1699 441.195 53.2578 440.631L53.623 444.316C50.0371 445.014 46.7832 445.08 40.6406 445.08H38.1836V431.135H51.9961ZM62.3555 429.707V445.312H57.6074V439.469H50.6016V435.982H57.6074V429.707H62.3555ZM62.3555 446.475V454.809H46.75V456.137H63.1523V459.855H41.9355V451.355H57.6074V450.16H41.9355V446.475H62.3555ZM97.8164 429.74V438.871H101.768V442.756H97.8164V452.484H93.0352V429.74H97.8164ZM91.5742 432.795V436.514H73.5117V432.795H80.1523V429.707H84.9336V432.795H91.5742ZM82.543 437.377C86.9922 437.377 90.1133 439.801 90.1133 443.354C90.1133 446.873 86.9922 449.23 82.543 449.23C78.0938 449.23 74.9062 446.873 74.9395 443.354C74.9062 439.801 78.0938 437.377 82.543 437.377ZM82.543 441.029C80.7832 441.029 79.5879 441.826 79.5879 443.354C79.5879 444.881 80.7832 445.611 82.543 445.645C84.3359 445.611 85.5645 444.881 85.5645 443.354C85.5645 441.826 84.3359 441.029 82.543 441.029ZM98.8125 455.871V459.689H77.8281V450.725H82.6094V455.871H98.8125ZM136.332 429.74V449.828H131.584V441.494H126.604V437.609H131.584V429.74H136.332ZM126.338 432.031C126.338 440.398 122.254 445.811 112.891 448.699L110.832 444.98C117.572 443.021 120.544 439.884 121.158 435.816H112.492V432.031H126.338ZM128.264 448.6C128.23 451.754 130.92 455.273 137.693 456.27L135.801 460.055C130.97 459.324 127.683 457.249 125.873 454.477C124.03 457.232 120.71 459.291 115.912 460.055L114.053 456.303C120.859 455.373 123.516 451.754 123.516 448.6V447.67H128.264V448.6ZM171.793 429.707V435.783H175.744V439.668H171.793V445.611H167.012V429.707H171.793ZM163.492 431.766C163.492 439.934 158.678 444.516 149.314 446.109L147.322 442.357C154.76 441.262 157.682 438.489 158.113 435.518H148.883V431.766H163.492ZM171.859 446.707V450.16H156.254V451.588H171.594V454.941H156.254V456.369H172.523V459.855H151.439V446.707H171.859ZM185.141 431.799C189.822 431.799 193.242 436.016 193.275 442.689C193.242 449.463 189.822 453.68 185.141 453.68C180.393 453.68 176.939 449.463 176.973 442.689C176.939 436.016 180.393 431.799 185.141 431.799ZM185.141 436.115C183.016 436.115 181.588 438.34 181.621 442.689C181.588 447.105 183.016 449.33 185.141 449.33C187.299 449.33 188.66 447.105 188.693 442.689C188.66 438.34 187.299 436.115 185.141 436.115ZM201.078 429.707V440.996H205.395V444.947H201.078V460.188H196.297V429.707H201.078ZM218.078 436.182C218.078 441.992 219.971 447.57 225.25 449.795L222.361 453.613C219.041 452.02 216.916 449.214 215.688 445.678C214.376 449.446 212.151 452.518 208.715 454.178L205.727 450.26C211.172 447.836 213.197 441.959 213.23 436.182V431.965H218.078V436.182ZM232.123 429.707V460.254H227.408V442.889H221.83V439.037H227.408V429.707H232.123ZM259.516 438.805V441.361H271.104V445.146H243.246V441.361H254.734V438.805H259.516ZM268.547 430.404V433.99H260.91C261.873 435.385 264.546 436.696 269.941 436.945L268.447 440.465C262.388 440.1 258.686 438.273 257.158 435.684C255.614 438.273 251.912 440.1 245.869 440.465L244.375 436.945C249.638 436.696 252.344 435.368 253.373 433.99H245.803V430.404H268.547ZM268.48 447.936V451.488H245.736V447.936H254.701V445.91H259.516V447.936H268.48ZM257.092 452.186C263.002 452.186 266.521 453.58 266.521 456.203C266.521 458.859 263.002 460.254 257.092 460.254C251.115 460.254 247.695 458.859 247.695 456.203C247.695 453.58 251.115 452.186 257.092 452.186ZM257.092 455.307C254.104 455.34 252.609 455.506 252.643 456.203C252.609 456.867 254.104 457.133 257.092 457.133C260.146 457.133 261.508 456.867 261.541 456.203C261.508 455.506 260.146 455.34 257.092 455.307ZM300.455 445.146V448.898H272.664V445.146H300.455ZM297.268 455.871V459.689H275.951V450.758H280.732V455.871H297.268ZM286.543 430.604C293.25 430.604 297.699 432.994 297.732 436.879C297.699 440.83 293.25 443.254 286.543 443.287C279.803 443.254 275.354 440.83 275.354 436.879C275.354 432.994 279.803 430.604 286.543 430.604ZM286.543 434.355C282.525 434.389 280.301 435.219 280.334 436.879C280.301 438.639 282.525 439.402 286.543 439.402C290.527 439.402 292.785 438.639 292.785 436.879C292.785 435.219 290.527 434.389 286.543 434.355ZM335.451 429.74V449.828H330.703V441.494H325.723V437.609H330.703V429.74H335.451ZM325.457 432.031C325.457 440.398 321.373 445.811 312.01 448.699L309.951 444.98C316.691 443.021 319.663 439.884 320.277 435.816H311.611V432.031H325.457ZM327.383 448.6C327.35 451.754 330.039 455.273 336.812 456.27L334.92 460.055C330.089 459.324 326.802 457.249 324.992 454.477C323.149 457.232 319.829 459.291 315.031 460.055L313.172 456.303C319.979 455.373 322.635 451.754 322.635 448.6V447.67H327.383V448.6ZM59.2178 473.707V479.783H63.1689V483.668H59.2178V489.611H54.4365V473.707H59.2178ZM50.917 475.766C50.917 483.934 46.1025 488.516 36.7393 490.109L34.7471 486.357C42.1846 485.262 45.1064 482.489 45.5381 479.518H36.3076V475.766H50.917ZM59.2842 490.707V494.16H43.6787V495.588H59.0186V498.941H43.6787V500.369H59.9482V503.855H38.8643V490.707H59.2842ZM72.5654 475.799C77.2471 475.799 80.667 480.016 80.7002 486.689C80.667 493.463 77.2471 497.68 72.5654 497.68C67.8174 497.68 64.3643 493.463 64.3975 486.689C64.3643 480.016 67.8174 475.799 72.5654 475.799ZM72.5654 480.115C70.4404 480.115 69.0127 482.34 69.0459 486.689C69.0127 491.105 70.4404 493.33 72.5654 493.33C74.7236 493.33 76.085 491.105 76.1182 486.689C76.085 482.34 74.7236 480.115 72.5654 480.115ZM88.5029 473.707V484.996H92.8193V488.947H88.5029V504.188H83.7217V473.707H88.5029ZM97.8662 501.332C96.2061 501.332 94.8447 500.004 94.8779 498.311C94.8447 496.684 96.2061 495.355 97.8662 495.355C99.46 495.355 100.854 496.684 100.888 498.311C100.854 500.004 99.46 501.332 97.8662 501.332ZM135.618 473.707V489.146H130.87V481.676H125.491V477.924H130.87V473.707H135.618ZM135.618 490.309V498.742H119.946V500.137H136.415V503.855H115.265V495.289H130.87V493.961H115.198V490.309H135.618ZM121.573 476.729C121.54 480.248 123.333 483.734 128.313 485.162L125.823 488.814C122.619 487.818 120.444 485.893 119.149 483.436C117.805 486.191 115.48 488.366 111.978 489.445L109.521 485.627C114.733 484.166 116.692 480.48 116.692 476.729V474.736H121.573V476.729ZM165.003 473.707V504.188H160.255V489.146H154.61V485.262H160.255V473.707H165.003ZM154.776 476.861C154.776 486.225 152.021 493.695 141.229 499.041L138.806 495.322C146.31 491.604 149.331 487.071 149.962 480.58H140.267V476.861H154.776ZM180.675 481.676C180.675 486.523 182.8 491.803 188.112 493.961L185.556 497.713C182.02 496.252 179.679 493.396 178.317 489.91C176.989 493.729 174.582 496.883 171.013 498.477L168.29 494.725C173.569 492.4 175.794 486.822 175.794 481.676V480.48H169.552V476.596H186.784V480.48H180.675V481.676ZM194.188 473.707V504.188H189.374V473.707H194.188ZM214.11 474.504C216.518 474.504 218.609 475.301 220.087 476.662H226.628V473.707H231.376V488.881H226.628V486.49H220.054C218.609 487.852 216.501 488.648 214.11 488.648C209.429 488.648 205.909 485.727 205.942 481.543C205.909 477.426 209.429 474.504 214.11 474.504ZM214.11 478.355C211.952 478.355 210.458 479.484 210.458 481.543C210.458 483.668 211.952 484.797 214.11 484.797C216.169 484.797 217.663 483.668 217.663 481.543C217.663 479.484 216.169 478.355 214.11 478.355ZM231.376 490.076V498.609H215.771V500.137H232.173V503.855H210.956V495.123H226.628V493.729H210.956V490.076H231.376ZM222.112 480.314C222.162 480.713 222.212 481.128 222.212 481.543C222.212 481.958 222.162 482.373 222.112 482.771H226.628V480.314H222.112ZM260.562 473.74V490.906H255.78V473.74H260.562ZM260.562 492.201V503.855H239.976V492.201H260.562ZM244.657 495.953V500.037H255.88V495.953H244.657ZM246.915 477.758C246.882 481.277 248.808 484.73 253.854 486.225L251.563 489.877C248.11 488.897 245.803 486.922 244.458 484.365C243.063 487.154 240.656 489.362 237.054 490.441L234.729 486.689C240.009 485.162 241.935 481.344 241.935 477.758V474.836H246.915V477.758ZM289.946 473.707V504.188H285.132V473.707H289.946ZM283.106 478.189V482.008H264.978V478.189H271.618V474.139H276.466V478.189H283.106ZM274.108 483.402C278.624 483.402 282.011 486.457 282.011 490.74C282.011 495.057 278.624 498.078 274.108 498.078C269.526 498.078 266.14 495.057 266.14 490.74C266.14 486.457 269.526 483.402 274.108 483.402ZM274.108 487.254C272.083 487.287 270.688 488.549 270.722 490.74C270.688 492.998 272.083 494.193 274.108 494.193C276.067 494.193 277.429 492.998 277.429 490.74C277.429 488.549 276.067 487.287 274.108 487.254ZM315.845 478.156V481.941H301.302V478.156H306.282V474.537H310.997V478.156H315.845ZM308.673 483.104C312.591 483.104 315.38 486.125 315.38 490.408C315.38 494.725 312.591 497.779 308.673 497.779C304.755 497.779 301.899 494.725 301.899 490.408C301.899 486.125 304.755 483.104 308.673 483.104ZM308.673 487.055C307.112 487.021 306.083 488.25 306.083 490.408C306.083 492.6 307.112 493.729 308.673 493.729C310.134 493.729 311.196 492.6 311.196 490.408C311.196 488.25 310.134 487.021 308.673 487.055ZM327.798 473.707V504.188H323.249V489.777H321.29V502.926H316.841V474.271H321.29V485.959H323.249V473.707H327.798ZM334.87 501.332C333.21 501.332 331.849 500.004 331.882 498.311C331.849 496.684 333.21 495.355 334.87 495.355C336.464 495.355 337.858 496.684 337.892 498.311C337.858 500.004 336.464 501.332 334.87 501.332ZM80.6172 545V520.961H96.9199V525.576H86.2617V530.656H95.8574V535.271H86.2617V545H80.6172ZM99.4766 545V526.971H104.922V530.225H105.088C105.752 527.867 107.346 526.705 109.338 526.705C109.869 526.705 110.467 526.805 110.932 526.904V531.785C110.4 531.619 109.404 531.52 108.707 531.52C106.615 531.52 105.088 532.98 105.088 535.139V545H99.4766ZM120.992 545.332C115.348 545.332 111.928 541.58 111.928 536.035C111.928 530.49 115.348 526.738 120.992 526.738C126.637 526.738 130.057 530.49 130.057 536.035C130.057 541.58 126.637 545.332 120.992 545.332ZM121.025 541.115C123.15 541.115 124.346 539.023 124.346 536.002C124.346 532.98 123.15 530.889 121.025 530.889C118.834 530.889 117.639 532.98 117.639 536.002C117.639 539.023 118.834 541.115 121.025 541.115ZM132.945 545V526.971H138.258V530.258H138.457C139.221 528.066 141.08 526.738 143.57 526.738C146.061 526.738 147.986 528.1 148.451 530.258H148.65C149.348 528.133 151.439 526.738 154.096 526.738C157.482 526.738 159.84 529.029 159.84 532.848V545H154.229V534.109C154.229 532.283 153.166 531.287 151.672 531.287C150.045 531.287 149.082 532.449 149.082 534.176V545H143.703V534.043C143.703 532.35 142.674 531.287 141.18 531.287C139.619 531.287 138.557 532.482 138.557 534.309V545H132.945ZM166.514 545.332C164.854 545.332 163.492 544.004 163.525 542.311C163.492 540.684 164.854 539.355 166.514 539.355C168.107 539.355 169.502 540.684 169.535 542.311C169.502 544.004 168.107 545.332 166.514 545.332ZM194.902 519.932C194.902 523.318 197.957 527.369 205.395 528.266L203.535 532.117C198.106 531.37 194.354 528.963 192.379 525.775C190.387 528.963 186.668 531.37 181.289 532.117L179.43 528.266C186.801 527.369 189.855 523.285 189.855 519.932V518.537H194.902V519.932ZM206.258 534.076V537.961H194.637V548.188H189.889V537.961H178.467V534.076H206.258ZM214.094 519.898V524.016H219.672V519.898H224.42V535.438H209.379V519.898H214.094ZM214.094 531.719H219.672V527.668H214.094V531.719ZM233.451 517.74V540.086H228.67V517.74H233.451ZM234.148 543.871V547.689H212.799V537.828H217.58V543.871H234.148ZM263.035 517.74V539.953H258.287V529.461H253.605C252.659 532.897 249.538 535.238 245.77 535.238C241.121 535.238 237.568 531.918 237.602 527.369C237.568 522.787 241.121 519.533 245.77 519.533C249.654 519.533 252.858 521.974 253.672 525.609H258.287V517.74H263.035ZM263.732 543.871V547.689H242.615V537.729H247.396V543.871H263.732ZM245.77 523.717C243.711 523.717 242.117 524.979 242.117 527.369C242.117 529.727 243.711 531.121 245.77 531.088C247.762 531.121 249.322 529.727 249.322 527.369C249.322 524.979 247.762 523.717 245.77 523.717ZM292.387 517.707V548.188H287.639V517.707H292.387ZM272.896 520.596V536.699C276.848 536.616 281.131 536.234 285.381 535.404L285.979 539.355C280.666 540.451 275.553 540.783 270.904 540.75H268.148V520.596H272.896Z" fill="#FF00F9"/>
</g>
<defs>
<clipPath id="clip0_1267_74">
<rect width="377.87" height="565.44" fill="white" transform="matrix(-1 0 0 1 377.87 0)"/>
</clipPath>
</defs>
</svg>
