<svg width="81" height="60" viewBox="0 0 81 60" fill="none" xmlns="http://www.w3.org/2000/svg">
<g clip-path="url(#clip0_1267_79)">
<path d="M5.00998 40.79C5.20998 38.3 5.64998 35.84 6.40998 33.25C7.16998 30.66 8.04998 28.5 9.31998 26.13L7.82998 27.28C7.24998 27.4 6.74998 27.29 6.32998 26.97C6.13998 26.72 6.11998 26.72 6.26998 26.97C6.16998 26.69 6.15998 26.68 6.25998 26.95C6.30998 27.09 6.34998 27.24 6.38998 27.38C6.58998 28.02 6.81998 28.65 7.07998 29.27C7.61998 30.56 8.22998 31.8 8.99998 32.96C10.6 35.37 12.6 37.38 14.96 39.04C16.03 39.79 17.79 39.27 18.38 38.14C19.06 36.86 18.63 35.52 17.48 34.72C17.27 34.58 17.07 34.43 16.87 34.28C17.14 34.48 16.66 34.11 16.59 34.05C16.14 33.67 15.71 33.27 15.3 32.86C14.95 32.5 14.61 32.13 14.28 31.75C14.22 31.68 13.83 31.21 14.04 31.47C13.86 31.24 13.69 31 13.52 30.76C12.92 29.9 12.4 28.99 11.95 28.04C11.88 27.89 11.81 27.74 11.74 27.58C11.76 27.63 11.86 27.87 11.74 27.6C11.65 27.37 11.56 27.13 11.47 26.9C11.3 26.42 11.17 25.92 10.99 25.44C10.49 24.1 9.65998 22.91 8.23998 22.48C7.28998 22.19 6.08998 22.42 5.37998 23.13C4.86998 23.64 4.57998 24.41 4.26998 25.05C3.13998 27.35 2.19998 29.76 1.49998 32.23C0.709976 35 0.229976 37.89 -2.38698e-05 40.79C-0.100024 42.1 1.21998 43.35 2.49998 43.29C3.93998 43.23 4.88998 42.19 4.99998 40.79H5.00998Z" fill="#FF00FF"/>
<path d="M15.2602 17.75C16.1602 24.71 18.0402 31.37 20.9402 37.76C21.5002 38.99 23.2802 39.29 24.3602 38.66C25.6202 37.92 25.8202 36.47 25.2602 35.24C22.7602 29.73 21.0402 23.76 20.2602 17.76C20.0902 16.42 19.2302 15.26 17.7602 15.26C16.5402 15.26 15.0902 16.41 15.2602 17.76V17.75Z" fill="#FF00FF"/>
<path d="M20.9399 29.3C24.2099 28.51 27.3799 27.12 30.1599 25.21C30.6999 24.84 31.1299 24.37 31.3099 23.72C31.4699 23.12 31.3999 22.32 31.0599 21.79C30.3699 20.72 28.7899 20.1 27.6399 20.89C26.3499 21.77 24.9999 22.54 23.5699 23.18C23.4799 23.22 23.3899 23.26 23.2899 23.3C23.0499 23.41 23.1099 23.38 23.4699 23.22C23.2799 23.27 23.0899 23.37 22.9099 23.44C22.5799 23.57 22.2499 23.69 21.9199 23.8C21.1599 24.06 20.3899 24.28 19.5999 24.47C18.3299 24.78 17.4499 26.29 17.8499 27.55C18.2799 28.87 19.5599 29.62 20.9299 29.3H20.9399Z" fill="#FF00FF"/>
<path d="M23.2402 14.47C24.2202 21.61 26.6202 28.52 30.1902 34.78C31.7802 37.58 36.1102 35.06 34.5102 32.26C31.1402 26.35 28.9902 19.88 28.0702 13.14C27.8902 11.8 26.1702 11.07 24.9902 11.39C23.5502 11.79 23.0602 13.12 23.2402 14.47Z" fill="#FF00FF"/>
<path d="M24.1402 41.07C18.8002 41.65 16.4302 47.32 16.0002 52.1C15.4802 57.8 21.9502 59.98 26.6202 59.62C29.0502 59.43 31.3402 58.75 33.5502 57.73C35.6102 56.77 37.8002 55.44 39.2502 53.67C41.0202 51.51 41.5002 48.7 41.7402 46C41.9802 43.3 41.8002 40.69 39.0902 39.48C36.5502 38.34 33.2802 37.68 30.5102 38.01C29.0502 38.19 27.7402 38.67 26.4502 39.38C25.5802 39.86 24.5402 40.6 23.8002 40.68C22.4602 40.81 21.3002 41.73 21.3002 43.18C21.3002 44.43 22.4502 45.81 23.8002 45.68C25.6902 45.49 27.2002 44.7 28.8302 43.78C30.1802 43.02 31.4902 42.78 33.1102 43.02C34.0302 43.15 34.9402 43.41 35.8402 43.66C36.1902 43.76 36.5402 43.86 36.8902 43.97C36.5602 43.87 37.0802 44.01 37.0402 44.04C37.0102 44.06 36.8802 43.82 36.8602 43.83C36.6602 43.94 37.1002 43.42 36.8102 43.89C36.7502 43.98 36.8102 44.33 36.8102 44.44C36.8102 44.97 36.7702 45.49 36.7202 46.02C36.6402 46.94 36.4802 47.85 36.2402 48.74C35.4302 51.67 31.8302 53.32 29.1302 54.13C27.5902 54.59 26.1402 54.8 24.5302 54.64C23.7002 54.56 21.7402 54.15 21.1702 53.47C20.4102 52.57 21.4802 50.13 21.8402 49.04C22.0802 48.33 22.5002 47.44 22.8702 46.99C23.0302 46.8 23.4302 46.45 23.4802 46.41C23.6402 46.3 23.8202 46.21 23.9902 46.12C23.7502 46.23 24.4502 46.05 24.1202 46.09C25.4602 45.94 26.6202 45.05 26.6202 43.59C26.6202 42.35 25.4702 40.94 24.1202 41.09L24.1402 41.07Z" fill="#FF00FF"/>
<path d="M48.4798 4.90997C49.1798 5.02997 49.8598 5.21997 50.5098 5.49997L49.9098 5.24997C50.6098 5.54997 51.2598 5.92997 51.8698 6.38997L51.3598 5.99997C51.5398 6.13997 51.7098 6.27997 51.8798 6.42997C52.3798 6.86997 52.9698 7.15997 53.6498 7.15997C54.2598 7.15997 54.9998 6.88997 55.4198 6.42997C55.8398 5.96997 56.1798 5.32997 56.1498 4.65997C56.1198 3.98997 55.9098 3.32997 55.4198 2.88997C53.8398 1.48997 51.8998 0.439974 49.7998 0.0899739C49.4698 -0.0100261 49.1398 -0.0300261 48.7998 0.0499739C48.4698 0.0699739 48.1598 0.159974 47.8698 0.349974C47.3498 0.649974 46.8598 1.24997 46.7198 1.83997C46.5698 2.47997 46.6098 3.19997 46.9698 3.76997C47.2998 4.27997 47.8298 4.80997 48.4598 4.91997L48.4798 4.90997Z" fill="#FF00FF"/>
<path d="M46.9901 12.43C51.6701 10.29 56.8301 9.61001 60.7601 6.02001L56.8301 5.51001C56.9401 5.68001 56.3201 6.79001 56.1901 7.04001C55.7601 7.93001 55.3101 8.81001 54.8601 9.69001C53.8901 11.57 52.8701 13.43 51.8001 15.26C49.6701 18.92 47.3501 22.47 44.8601 25.91C44.0701 27 44.6701 28.7 45.7601 29.33C47.0201 30.07 48.3901 29.53 49.1801 28.43C51.9901 24.54 54.6001 20.5 56.9601 16.31C58.1101 14.28 59.2001 12.22 60.2301 10.13C61.3401 7.89001 62.6101 5.39001 61.1501 2.98001C60.2801 1.56001 58.4201 1.38001 57.2201 2.47001C55.6001 3.95001 53.5501 4.79001 51.5101 5.50001C49.1401 6.32001 46.7501 7.05001 44.4701 8.10001C43.2401 8.66001 42.9401 10.44 43.5701 11.52C44.3101 12.78 45.7601 12.98 46.9901 12.42V12.43Z" fill="#FF00FF"/>
<path d="M54.0602 18.59H68.5202C69.8302 18.59 71.0802 17.44 71.0202 16.09C70.9602 14.74 69.9202 13.59 68.5202 13.59H54.0602C52.7502 13.59 51.5002 14.74 51.5602 16.09C51.6202 17.44 52.6602 18.59 54.0602 18.59Z" fill="#FF00FF"/>
<path d="M45.8601 36.5C57.0601 35.05 67.8601 31.8 77.9901 26.77C80.8701 25.34 78.3401 21.02 75.4701 22.45C66.2001 27.06 56.1401 30.17 45.8701 31.5C44.5301 31.67 43.3701 32.52 43.3701 34C43.3701 35.22 44.5201 36.67 45.8701 36.5H45.8601Z" fill="#FF00FF"/>
<path d="M59.7298 29.53C59.4598 31.05 59.3898 32.51 59.5998 34.04C59.8098 35.57 60.2398 36.94 60.8898 38.33C61.1398 38.87 61.8298 39.33 62.3798 39.48C62.9798 39.64 63.7798 39.57 64.3098 39.23C64.8398 38.89 65.3098 38.37 65.4598 37.74C65.6198 37.05 65.5098 36.45 65.2098 35.81C65.1398 35.66 65.0698 35.52 65.0098 35.37L65.2598 35.97C64.8698 35.03 64.5998 34.05 64.4598 33.05L64.5498 33.71C64.4298 32.74 64.4198 31.77 64.5498 30.8L64.4598 31.46C64.4898 31.26 64.5198 31.06 64.5498 30.86C64.6698 30.19 64.6598 29.54 64.2998 28.93C63.9998 28.41 63.3998 27.92 62.8098 27.78C62.1698 27.63 61.4498 27.67 60.8798 28.03C60.3598 28.36 59.8498 28.89 59.7298 29.52V29.53Z" fill="#FF00FF"/>
<path d="M50.1601 43.87C55.0201 43.95 60.0901 44.4 64.8501 43.22C69.1601 42.15 73.0601 39.87 77.4101 38.92L74.3301 35.84C73.5501 40.8 73.8201 45.79 75.3201 50.6C76.2801 53.66 81.1001 52.35 80.1401 49.27C78.9201 45.36 78.5101 41.23 79.1501 37.17C79.4501 35.27 78.0701 33.66 76.0701 34.09C71.8601 35.01 68.0801 37.17 63.9301 38.28C59.5101 39.46 54.6701 38.93 50.1401 38.86C46.9201 38.81 46.9201 43.81 50.1401 43.86L50.1601 43.87Z" fill="#FF00FF"/>
</g>
<defs>
<clipPath id="clip0_1267_79">
<rect width="80.28" height="59.66" fill="white"/>
</clipPath>
</defs>
</svg>
